<?xml version="1.0" encoding="utf-8" standalone="no"?>
<!DOCTYPE svg PUBLIC "-//W3C//DTD SVG 1.1//EN"
  "http://www.w3.org/Graphics/SVG/1.1/DTD/svg11.dtd">
<!-- Created with matplotlib (http://matplotlib.org/) -->
<svg height="155pt" version="1.1" viewBox="0 0 251 155" width="251pt" xmlns="http://www.w3.org/2000/svg" xmlns:xlink="http://www.w3.org/1999/xlink">
 <defs>
  <style type="text/css">
*{stroke-linecap:butt;stroke-linejoin:round;}
  </style>
 </defs>
 <g id="figure_1">
  <g id="patch_1">
   <path d="M 0 155.52 
L 251.28 155.52 
L 251.28 0 
L 0 0 
z
" style="fill:#ffffff;"/>
  </g>
  <g id="axes_1">
   <g id="patch_2">
    <path d="M 38.9484 124.416 
L 238.716 124.416 
L 238.716 27.216 
L 38.9484 27.216 
z
" style="fill:#ffffff;"/>
   </g>
   <g id="matplotlib.axis_1">
    <g id="xtick_1">
     <g id="line2d_1">
      <defs>
       <path d="M 0 0 
L 0 3.5 
" id="m7e97671a0d" style="stroke:#000000;stroke-width:0.8;"/>
      </defs>
      <g>
       <use style="stroke:#000000;stroke-width:0.8;" x="48.028745" xlink:href="#m7e97671a0d" y="124.416"/>
      </g>
     </g>
     <g id="text_1">
      <!-- 0 -->
      <defs>
       <path d="M 31.78125 66.40625 
Q 24.171875 66.40625 20.328125 58.90625 
Q 16.5 51.421875 16.5 36.375 
Q 16.5 21.390625 20.328125 13.890625 
Q 24.171875 6.390625 31.78125 6.390625 
Q 39.453125 6.390625 43.28125 13.890625 
Q 47.125 21.390625 47.125 36.375 
Q 47.125 51.421875 43.28125 58.90625 
Q 39.453125 66.40625 31.78125 66.40625 
z
M 31.78125 74.21875 
Q 44.046875 74.21875 50.515625 64.515625 
Q 56.984375 54.828125 56.984375 36.375 
Q 56.984375 17.96875 50.515625 8.265625 
Q 44.046875 -1.421875 31.78125 -1.421875 
Q 19.53125 -1.421875 13.0625 8.265625 
Q 6.59375 17.96875 6.59375 36.375 
Q 6.59375 54.828125 13.0625 64.515625 
Q 19.53125 74.21875 31.78125 74.21875 
z
" id="DejaVuSans-30"/>
      </defs>
      <g transform="translate(45.483745 137.49475)scale(0.08 -0.08)">
       <use xlink:href="#DejaVuSans-30"/>
      </g>
     </g>
    </g>
    <g id="xtick_2">
     <g id="line2d_2">
      <g>
       <use style="stroke:#000000;stroke-width:0.8;" x="78.515902" xlink:href="#m7e97671a0d" y="124.416"/>
      </g>
     </g>
     <g id="text_2">
      <!-- 10 -->
      <defs>
       <path d="M 12.40625 8.296875 
L 28.515625 8.296875 
L 28.515625 63.921875 
L 10.984375 60.40625 
L 10.984375 69.390625 
L 28.421875 72.90625 
L 38.28125 72.90625 
L 38.28125 8.296875 
L 54.390625 8.296875 
L 54.390625 0 
L 12.40625 0 
z
" id="DejaVuSans-31"/>
      </defs>
      <g transform="translate(73.425902 137.49475)scale(0.08 -0.08)">
       <use xlink:href="#DejaVuSans-31"/>
       <use x="63.623047" xlink:href="#DejaVuSans-30"/>
      </g>
     </g>
    </g>
    <g id="xtick_3">
     <g id="line2d_3">
      <g>
       <use style="stroke:#000000;stroke-width:0.8;" x="109.003058" xlink:href="#m7e97671a0d" y="124.416"/>
      </g>
     </g>
     <g id="text_3">
      <!-- 20 -->
      <defs>
       <path d="M 19.1875 8.296875 
L 53.609375 8.296875 
L 53.609375 0 
L 7.328125 0 
L 7.328125 8.296875 
Q 12.9375 14.109375 22.625 23.890625 
Q 32.328125 33.6875 34.8125 36.53125 
Q 39.546875 41.84375 41.421875 45.53125 
Q 43.3125 49.21875 43.3125 52.78125 
Q 43.3125 58.59375 39.234375 62.25 
Q 35.15625 65.921875 28.609375 65.921875 
Q 23.96875 65.921875 18.8125 64.3125 
Q 13.671875 62.703125 7.8125 59.421875 
L 7.8125 69.390625 
Q 13.765625 71.78125 18.9375 73 
Q 24.125 74.21875 28.421875 74.21875 
Q 39.75 74.21875 46.484375 68.546875 
Q 53.21875 62.890625 53.21875 53.421875 
Q 53.21875 48.921875 51.53125 44.890625 
Q 49.859375 40.875 45.40625 35.40625 
Q 44.1875 33.984375 37.640625 27.21875 
Q 31.109375 20.453125 19.1875 8.296875 
z
" id="DejaVuSans-32"/>
      </defs>
      <g transform="translate(103.913058 137.49475)scale(0.08 -0.08)">
       <use xlink:href="#DejaVuSans-32"/>
       <use x="63.623047" xlink:href="#DejaVuSans-30"/>
      </g>
     </g>
    </g>
    <g id="xtick_4">
     <g id="line2d_4">
      <g>
       <use style="stroke:#000000;stroke-width:0.8;" x="139.490214" xlink:href="#m7e97671a0d" y="124.416"/>
      </g>
     </g>
     <g id="text_4">
      <!-- 30 -->
      <defs>
       <path d="M 40.578125 39.3125 
Q 47.65625 37.796875 51.625 33 
Q 55.609375 28.21875 55.609375 21.1875 
Q 55.609375 10.40625 48.1875 4.484375 
Q 40.765625 -1.421875 27.09375 -1.421875 
Q 22.515625 -1.421875 17.65625 -0.515625 
Q 12.796875 0.390625 7.625 2.203125 
L 7.625 11.71875 
Q 11.71875 9.328125 16.59375 8.109375 
Q 21.484375 6.890625 26.8125 6.890625 
Q 36.078125 6.890625 40.9375 10.546875 
Q 45.796875 14.203125 45.796875 21.1875 
Q 45.796875 27.640625 41.28125 31.265625 
Q 36.765625 34.90625 28.71875 34.90625 
L 20.21875 34.90625 
L 20.21875 43.015625 
L 29.109375 43.015625 
Q 36.375 43.015625 40.234375 45.921875 
Q 44.09375 48.828125 44.09375 54.296875 
Q 44.09375 59.90625 40.109375 62.90625 
Q 36.140625 65.921875 28.71875 65.921875 
Q 24.65625 65.921875 20.015625 65.03125 
Q 15.375 64.15625 9.8125 62.3125 
L 9.8125 71.09375 
Q 15.4375 72.65625 20.34375 73.4375 
Q 25.25 74.21875 29.59375 74.21875 
Q 40.828125 74.21875 47.359375 69.109375 
Q 53.90625 64.015625 53.90625 55.328125 
Q 53.90625 49.265625 50.4375 45.09375 
Q 46.96875 40.921875 40.578125 39.3125 
z
" id="DejaVuSans-33"/>
      </defs>
      <g transform="translate(134.400214 137.49475)scale(0.08 -0.08)">
       <use xlink:href="#DejaVuSans-33"/>
       <use x="63.623047" xlink:href="#DejaVuSans-30"/>
      </g>
     </g>
    </g>
    <g id="xtick_5">
     <g id="line2d_5">
      <g>
       <use style="stroke:#000000;stroke-width:0.8;" x="169.977371" xlink:href="#m7e97671a0d" y="124.416"/>
      </g>
     </g>
     <g id="text_5">
      <!-- 40 -->
      <defs>
       <path d="M 37.796875 64.3125 
L 12.890625 25.390625 
L 37.796875 25.390625 
z
M 35.203125 72.90625 
L 47.609375 72.90625 
L 47.609375 25.390625 
L 58.015625 25.390625 
L 58.015625 17.1875 
L 47.609375 17.1875 
L 47.609375 0 
L 37.796875 0 
L 37.796875 17.1875 
L 4.890625 17.1875 
L 4.890625 26.703125 
z
" id="DejaVuSans-34"/>
      </defs>
      <g transform="translate(164.887371 137.49475)scale(0.08 -0.08)">
       <use xlink:href="#DejaVuSans-34"/>
       <use x="63.623047" xlink:href="#DejaVuSans-30"/>
      </g>
     </g>
    </g>
    <g id="xtick_6">
     <g id="line2d_6">
      <g>
       <use style="stroke:#000000;stroke-width:0.8;" x="200.464527" xlink:href="#m7e97671a0d" y="124.416"/>
      </g>
     </g>
     <g id="text_6">
      <!-- 50 -->
      <defs>
       <path d="M 10.796875 72.90625 
L 49.515625 72.90625 
L 49.515625 64.59375 
L 19.828125 64.59375 
L 19.828125 46.734375 
Q 21.96875 47.46875 24.109375 47.828125 
Q 26.265625 48.1875 28.421875 48.1875 
Q 40.625 48.1875 47.75 41.5 
Q 54.890625 34.8125 54.890625 23.390625 
Q 54.890625 11.625 47.5625 5.09375 
Q 40.234375 -1.421875 26.90625 -1.421875 
Q 22.3125 -1.421875 17.546875 -0.640625 
Q 12.796875 0.140625 7.71875 1.703125 
L 7.71875 11.625 
Q 12.109375 9.234375 16.796875 8.0625 
Q 21.484375 6.890625 26.703125 6.890625 
Q 35.15625 6.890625 40.078125 11.328125 
Q 45.015625 15.765625 45.015625 23.390625 
Q 45.015625 31 40.078125 35.4375 
Q 35.15625 39.890625 26.703125 39.890625 
Q 22.75 39.890625 18.8125 39.015625 
Q 14.890625 38.140625 10.796875 36.28125 
z
" id="DejaVuSans-35"/>
      </defs>
      <g transform="translate(195.374527 137.49475)scale(0.08 -0.08)">
       <use xlink:href="#DejaVuSans-35"/>
       <use x="63.623047" xlink:href="#DejaVuSans-30"/>
      </g>
     </g>
    </g>
    <g id="xtick_7">
     <g id="line2d_7">
      <g>
       <use style="stroke:#000000;stroke-width:0.8;" x="230.951683" xlink:href="#m7e97671a0d" y="124.416"/>
      </g>
     </g>
     <g id="text_7">
      <!-- 60 -->
      <defs>
       <path d="M 33.015625 40.375 
Q 26.375 40.375 22.484375 35.828125 
Q 18.609375 31.296875 18.609375 23.390625 
Q 18.609375 15.53125 22.484375 10.953125 
Q 26.375 6.390625 33.015625 6.390625 
Q 39.65625 6.390625 43.53125 10.953125 
Q 47.40625 15.53125 47.40625 23.390625 
Q 47.40625 31.296875 43.53125 35.828125 
Q 39.65625 40.375 33.015625 40.375 
z
M 52.59375 71.296875 
L 52.59375 62.3125 
Q 48.875 64.0625 45.09375 64.984375 
Q 41.3125 65.921875 37.59375 65.921875 
Q 27.828125 65.921875 22.671875 59.328125 
Q 17.53125 52.734375 16.796875 39.40625 
Q 19.671875 43.65625 24.015625 45.921875 
Q 28.375 48.1875 33.59375 48.1875 
Q 44.578125 48.1875 50.953125 41.515625 
Q 57.328125 34.859375 57.328125 23.390625 
Q 57.328125 12.15625 50.6875 5.359375 
Q 44.046875 -1.421875 33.015625 -1.421875 
Q 20.359375 -1.421875 13.671875 8.265625 
Q 6.984375 17.96875 6.984375 36.375 
Q 6.984375 53.65625 15.1875 63.9375 
Q 23.390625 74.21875 37.203125 74.21875 
Q 40.921875 74.21875 44.703125 73.484375 
Q 48.484375 72.75 52.59375 71.296875 
z
" id="DejaVuSans-36"/>
      </defs>
      <g transform="translate(225.861683 137.49475)scale(0.08 -0.08)">
       <use xlink:href="#DejaVuSans-36"/>
       <use x="63.623047" xlink:href="#DejaVuSans-30"/>
      </g>
     </g>
    </g>
    <g id="text_8">
     <!-- Dosis (Gy) -->
     <defs>
      <path d="M 19.671875 64.796875 
L 19.671875 8.109375 
L 31.59375 8.109375 
Q 46.6875 8.109375 53.6875 14.9375 
Q 60.6875 21.78125 60.6875 36.53125 
Q 60.6875 51.171875 53.6875 57.984375 
Q 46.6875 64.796875 31.59375 64.796875 
z
M 9.8125 72.90625 
L 30.078125 72.90625 
Q 51.265625 72.90625 61.171875 64.09375 
Q 71.09375 55.28125 71.09375 36.53125 
Q 71.09375 17.671875 61.125 8.828125 
Q 51.171875 0 30.078125 0 
L 9.8125 0 
z
" id="DejaVuSans-44"/>
      <path d="M 30.609375 48.390625 
Q 23.390625 48.390625 19.1875 42.75 
Q 14.984375 37.109375 14.984375 27.296875 
Q 14.984375 17.484375 19.15625 11.84375 
Q 23.34375 6.203125 30.609375 6.203125 
Q 37.796875 6.203125 41.984375 11.859375 
Q 46.1875 17.53125 46.1875 27.296875 
Q 46.1875 37.015625 41.984375 42.703125 
Q 37.796875 48.390625 30.609375 48.390625 
z
M 30.609375 56 
Q 42.328125 56 49.015625 48.375 
Q 55.71875 40.765625 55.71875 27.296875 
Q 55.71875 13.875 49.015625 6.21875 
Q 42.328125 -1.421875 30.609375 -1.421875 
Q 18.84375 -1.421875 12.171875 6.21875 
Q 5.515625 13.875 5.515625 27.296875 
Q 5.515625 40.765625 12.171875 48.375 
Q 18.84375 56 30.609375 56 
z
" id="DejaVuSans-6f"/>
      <path d="M 44.28125 53.078125 
L 44.28125 44.578125 
Q 40.484375 46.53125 36.375 47.5 
Q 32.28125 48.484375 27.875 48.484375 
Q 21.1875 48.484375 17.84375 46.4375 
Q 14.5 44.390625 14.5 40.28125 
Q 14.5 37.15625 16.890625 35.375 
Q 19.28125 33.59375 26.515625 31.984375 
L 29.59375 31.296875 
Q 39.15625 29.25 43.1875 25.515625 
Q 47.21875 21.78125 47.21875 15.09375 
Q 47.21875 7.46875 41.1875 3.015625 
Q 35.15625 -1.421875 24.609375 -1.421875 
Q 20.21875 -1.421875 15.453125 -0.5625 
Q 10.6875 0.296875 5.421875 2 
L 5.421875 11.28125 
Q 10.40625 8.6875 15.234375 7.390625 
Q 20.0625 6.109375 24.8125 6.109375 
Q 31.15625 6.109375 34.5625 8.28125 
Q 37.984375 10.453125 37.984375 14.40625 
Q 37.984375 18.0625 35.515625 20.015625 
Q 33.0625 21.96875 24.703125 23.78125 
L 21.578125 24.515625 
Q 13.234375 26.265625 9.515625 29.90625 
Q 5.8125 33.546875 5.8125 39.890625 
Q 5.8125 47.609375 11.28125 51.796875 
Q 16.75 56 26.8125 56 
Q 31.78125 56 36.171875 55.265625 
Q 40.578125 54.546875 44.28125 53.078125 
z
" id="DejaVuSans-73"/>
      <path d="M 9.421875 54.6875 
L 18.40625 54.6875 
L 18.40625 0 
L 9.421875 0 
z
M 9.421875 75.984375 
L 18.40625 75.984375 
L 18.40625 64.59375 
L 9.421875 64.59375 
z
" id="DejaVuSans-69"/>
      <path id="DejaVuSans-20"/>
      <path d="M 31 75.875 
Q 24.46875 64.65625 21.28125 53.65625 
Q 18.109375 42.671875 18.109375 31.390625 
Q 18.109375 20.125 21.3125 9.0625 
Q 24.515625 -2 31 -13.1875 
L 23.1875 -13.1875 
Q 15.875 -1.703125 12.234375 9.375 
Q 8.59375 20.453125 8.59375 31.390625 
Q 8.59375 42.28125 12.203125 53.3125 
Q 15.828125 64.359375 23.1875 75.875 
z
" id="DejaVuSans-28"/>
      <path d="M 59.515625 10.40625 
L 59.515625 29.984375 
L 43.40625 29.984375 
L 43.40625 38.09375 
L 69.28125 38.09375 
L 69.28125 6.78125 
Q 63.578125 2.734375 56.6875 0.65625 
Q 49.8125 -1.421875 42 -1.421875 
Q 24.90625 -1.421875 15.25 8.5625 
Q 5.609375 18.5625 5.609375 36.375 
Q 5.609375 54.25 15.25 64.234375 
Q 24.90625 74.21875 42 74.21875 
Q 49.125 74.21875 55.546875 72.453125 
Q 61.96875 70.703125 67.390625 67.28125 
L 67.390625 56.78125 
Q 61.921875 61.421875 55.765625 63.765625 
Q 49.609375 66.109375 42.828125 66.109375 
Q 29.4375 66.109375 22.71875 58.640625 
Q 16.015625 51.171875 16.015625 36.375 
Q 16.015625 21.625 22.71875 14.15625 
Q 29.4375 6.6875 42.828125 6.6875 
Q 48.046875 6.6875 52.140625 7.59375 
Q 56.25 8.5 59.515625 10.40625 
z
" id="DejaVuSans-47"/>
      <path d="M 32.171875 -5.078125 
Q 28.375 -14.84375 24.75 -17.8125 
Q 21.140625 -20.796875 15.09375 -20.796875 
L 7.90625 -20.796875 
L 7.90625 -13.28125 
L 13.1875 -13.28125 
Q 16.890625 -13.28125 18.9375 -11.515625 
Q 21 -9.765625 23.484375 -3.21875 
L 25.09375 0.875 
L 2.984375 54.6875 
L 12.5 54.6875 
L 29.59375 11.921875 
L 46.6875 54.6875 
L 56.203125 54.6875 
z
" id="DejaVuSans-79"/>
      <path d="M 8.015625 75.875 
L 15.828125 75.875 
Q 23.140625 64.359375 26.78125 53.3125 
Q 30.421875 42.28125 30.421875 31.390625 
Q 30.421875 20.453125 26.78125 9.375 
Q 23.140625 -1.703125 15.828125 -13.1875 
L 8.015625 -13.1875 
Q 14.5 -2 17.703125 9.0625 
Q 20.90625 20.125 20.90625 31.390625 
Q 20.90625 42.671875 17.703125 53.65625 
Q 14.5 64.65625 8.015625 75.875 
z
" id="DejaVuSans-29"/>
     </defs>
     <g transform="translate(113.000169 150.756938)scale(0.1 -0.1)">
      <use xlink:href="#DejaVuSans-44"/>
      <use x="77.001953" xlink:href="#DejaVuSans-6f"/>
      <use x="138.183594" xlink:href="#DejaVuSans-73"/>
      <use x="190.283203" xlink:href="#DejaVuSans-69"/>
      <use x="218.066406" xlink:href="#DejaVuSans-73"/>
      <use x="270.166016" xlink:href="#DejaVuSans-20"/>
      <use x="301.953125" xlink:href="#DejaVuSans-28"/>
      <use x="340.966797" xlink:href="#DejaVuSans-47"/>
      <use x="418.457031" xlink:href="#DejaVuSans-79"/>
      <use x="477.636719" xlink:href="#DejaVuSans-29"/>
     </g>
    </g>
   </g>
   <g id="matplotlib.axis_2">
    <g id="ytick_1">
     <g id="line2d_8">
      <defs>
       <path d="M 0 0 
L -3.5 0 
" id="ma7a75f5cac" style="stroke:#000000;stroke-width:0.8;"/>
      </defs>
      <g>
       <use style="stroke:#000000;stroke-width:0.8;" x="38.9484" xlink:href="#ma7a75f5cac" y="111.86126"/>
      </g>
     </g>
     <g id="text_9">
      <!-- 6 -->
      <g transform="translate(26.8584 114.900635)scale(0.08 -0.08)">
       <use xlink:href="#DejaVuSans-36"/>
      </g>
     </g>
    </g>
    <g id="ytick_2">
     <g id="line2d_9">
      <g>
       <use style="stroke:#000000;stroke-width:0.8;" x="38.9484" xlink:href="#ma7a75f5cac" y="91.45772"/>
      </g>
     </g>
     <g id="text_10">
      <!-- 7 -->
      <defs>
       <path d="M 8.203125 72.90625 
L 55.078125 72.90625 
L 55.078125 68.703125 
L 28.609375 0 
L 18.3125 0 
L 43.21875 64.59375 
L 8.203125 64.59375 
z
" id="DejaVuSans-37"/>
      </defs>
      <g transform="translate(26.8584 94.497095)scale(0.08 -0.08)">
       <use xlink:href="#DejaVuSans-37"/>
      </g>
     </g>
    </g>
    <g id="ytick_3">
     <g id="line2d_10">
      <g>
       <use style="stroke:#000000;stroke-width:0.8;" x="38.9484" xlink:href="#ma7a75f5cac" y="71.05418"/>
      </g>
     </g>
     <g id="text_11">
      <!-- 8 -->
      <defs>
       <path d="M 31.78125 34.625 
Q 24.75 34.625 20.71875 30.859375 
Q 16.703125 27.09375 16.703125 20.515625 
Q 16.703125 13.921875 20.71875 10.15625 
Q 24.75 6.390625 31.78125 6.390625 
Q 38.8125 6.390625 42.859375 10.171875 
Q 46.921875 13.96875 46.921875 20.515625 
Q 46.921875 27.09375 42.890625 30.859375 
Q 38.875 34.625 31.78125 34.625 
z
M 21.921875 38.8125 
Q 15.578125 40.375 12.03125 44.71875 
Q 8.5 49.078125 8.5 55.328125 
Q 8.5 64.0625 14.71875 69.140625 
Q 20.953125 74.21875 31.78125 74.21875 
Q 42.671875 74.21875 48.875 69.140625 
Q 55.078125 64.0625 55.078125 55.328125 
Q 55.078125 49.078125 51.53125 44.71875 
Q 48 40.375 41.703125 38.8125 
Q 48.828125 37.15625 52.796875 32.3125 
Q 56.78125 27.484375 56.78125 20.515625 
Q 56.78125 9.90625 50.3125 4.234375 
Q 43.84375 -1.421875 31.78125 -1.421875 
Q 19.734375 -1.421875 13.25 4.234375 
Q 6.78125 9.90625 6.78125 20.515625 
Q 6.78125 27.484375 10.78125 32.3125 
Q 14.796875 37.15625 21.921875 38.8125 
z
M 18.3125 54.390625 
Q 18.3125 48.734375 21.84375 45.5625 
Q 25.390625 42.390625 31.78125 42.390625 
Q 38.140625 42.390625 41.71875 45.5625 
Q 45.3125 48.734375 45.3125 54.390625 
Q 45.3125 60.0625 41.71875 63.234375 
Q 38.140625 66.40625 31.78125 66.40625 
Q 25.390625 66.40625 21.84375 63.234375 
Q 18.3125 60.0625 18.3125 54.390625 
z
" id="DejaVuSans-38"/>
      </defs>
      <g transform="translate(26.8584 74.093555)scale(0.08 -0.08)">
       <use xlink:href="#DejaVuSans-38"/>
      </g>
     </g>
    </g>
    <g id="ytick_4">
     <g id="line2d_11">
      <g>
       <use style="stroke:#000000;stroke-width:0.8;" x="38.9484" xlink:href="#ma7a75f5cac" y="50.65064"/>
      </g>
     </g>
     <g id="text_12">
      <!-- 9 -->
      <defs>
       <path d="M 10.984375 1.515625 
L 10.984375 10.5 
Q 14.703125 8.734375 18.5 7.8125 
Q 22.3125 6.890625 25.984375 6.890625 
Q 35.75 6.890625 40.890625 13.453125 
Q 46.046875 20.015625 46.78125 33.40625 
Q 43.953125 29.203125 39.59375 26.953125 
Q 35.25 24.703125 29.984375 24.703125 
Q 19.046875 24.703125 12.671875 31.3125 
Q 6.296875 37.9375 6.296875 49.421875 
Q 6.296875 60.640625 12.9375 67.421875 
Q 19.578125 74.21875 30.609375 74.21875 
Q 43.265625 74.21875 49.921875 64.515625 
Q 56.59375 54.828125 56.59375 36.375 
Q 56.59375 19.140625 48.40625 8.859375 
Q 40.234375 -1.421875 26.421875 -1.421875 
Q 22.703125 -1.421875 18.890625 -0.6875 
Q 15.09375 0.046875 10.984375 1.515625 
z
M 30.609375 32.421875 
Q 37.25 32.421875 41.125 36.953125 
Q 45.015625 41.5 45.015625 49.421875 
Q 45.015625 57.28125 41.125 61.84375 
Q 37.25 66.40625 30.609375 66.40625 
Q 23.96875 66.40625 20.09375 61.84375 
Q 16.21875 57.28125 16.21875 49.421875 
Q 16.21875 41.5 20.09375 36.953125 
Q 23.96875 32.421875 30.609375 32.421875 
z
" id="DejaVuSans-39"/>
      </defs>
      <g transform="translate(26.8584 53.690015)scale(0.08 -0.08)">
       <use xlink:href="#DejaVuSans-39"/>
      </g>
     </g>
    </g>
    <g id="ytick_5">
     <g id="line2d_12">
      <g>
       <use style="stroke:#000000;stroke-width:0.8;" x="38.9484" xlink:href="#ma7a75f5cac" y="30.2471"/>
      </g>
     </g>
     <g id="text_13">
      <!-- 10 -->
      <g transform="translate(21.7684 33.286475)scale(0.08 -0.08)">
       <use xlink:href="#DejaVuSans-31"/>
       <use x="63.623047" xlink:href="#DejaVuSans-30"/>
      </g>
     </g>
    </g>
    <g id="text_14">
     <!-- Sensibilidad (uA/Gy) -->
     <defs>
      <path d="M 53.515625 70.515625 
L 53.515625 60.890625 
Q 47.90625 63.578125 42.921875 64.890625 
Q 37.9375 66.21875 33.296875 66.21875 
Q 25.25 66.21875 20.875 63.09375 
Q 16.5 59.96875 16.5 54.203125 
Q 16.5 49.359375 19.40625 46.890625 
Q 22.3125 44.4375 30.421875 42.921875 
L 36.375 41.703125 
Q 47.40625 39.59375 52.65625 34.296875 
Q 57.90625 29 57.90625 20.125 
Q 57.90625 9.515625 50.796875 4.046875 
Q 43.703125 -1.421875 29.984375 -1.421875 
Q 24.8125 -1.421875 18.96875 -0.25 
Q 13.140625 0.921875 6.890625 3.21875 
L 6.890625 13.375 
Q 12.890625 10.015625 18.65625 8.296875 
Q 24.421875 6.59375 29.984375 6.59375 
Q 38.421875 6.59375 43.015625 9.90625 
Q 47.609375 13.234375 47.609375 19.390625 
Q 47.609375 24.75 44.3125 27.78125 
Q 41.015625 30.8125 33.5 32.328125 
L 27.484375 33.5 
Q 16.453125 35.6875 11.515625 40.375 
Q 6.59375 45.0625 6.59375 53.421875 
Q 6.59375 63.09375 13.40625 68.65625 
Q 20.21875 74.21875 32.171875 74.21875 
Q 37.3125 74.21875 42.625 73.28125 
Q 47.953125 72.359375 53.515625 70.515625 
z
" id="DejaVuSans-53"/>
      <path d="M 56.203125 29.59375 
L 56.203125 25.203125 
L 14.890625 25.203125 
Q 15.484375 15.921875 20.484375 11.0625 
Q 25.484375 6.203125 34.421875 6.203125 
Q 39.59375 6.203125 44.453125 7.46875 
Q 49.3125 8.734375 54.109375 11.28125 
L 54.109375 2.78125 
Q 49.265625 0.734375 44.1875 -0.34375 
Q 39.109375 -1.421875 33.890625 -1.421875 
Q 20.796875 -1.421875 13.15625 6.1875 
Q 5.515625 13.8125 5.515625 26.8125 
Q 5.515625 40.234375 12.765625 48.109375 
Q 20.015625 56 32.328125 56 
Q 43.359375 56 49.78125 48.890625 
Q 56.203125 41.796875 56.203125 29.59375 
z
M 47.21875 32.234375 
Q 47.125 39.59375 43.09375 43.984375 
Q 39.0625 48.390625 32.421875 48.390625 
Q 24.90625 48.390625 20.390625 44.140625 
Q 15.875 39.890625 15.1875 32.171875 
z
" id="DejaVuSans-65"/>
      <path d="M 54.890625 33.015625 
L 54.890625 0 
L 45.90625 0 
L 45.90625 32.71875 
Q 45.90625 40.484375 42.875 44.328125 
Q 39.84375 48.1875 33.796875 48.1875 
Q 26.515625 48.1875 22.3125 43.546875 
Q 18.109375 38.921875 18.109375 30.90625 
L 18.109375 0 
L 9.078125 0 
L 9.078125 54.6875 
L 18.109375 54.6875 
L 18.109375 46.1875 
Q 21.34375 51.125 25.703125 53.5625 
Q 30.078125 56 35.796875 56 
Q 45.21875 56 50.046875 50.171875 
Q 54.890625 44.34375 54.890625 33.015625 
z
" id="DejaVuSans-6e"/>
      <path d="M 48.6875 27.296875 
Q 48.6875 37.203125 44.609375 42.84375 
Q 40.53125 48.484375 33.40625 48.484375 
Q 26.265625 48.484375 22.1875 42.84375 
Q 18.109375 37.203125 18.109375 27.296875 
Q 18.109375 17.390625 22.1875 11.75 
Q 26.265625 6.109375 33.40625 6.109375 
Q 40.53125 6.109375 44.609375 11.75 
Q 48.6875 17.390625 48.6875 27.296875 
z
M 18.109375 46.390625 
Q 20.953125 51.265625 25.265625 53.625 
Q 29.59375 56 35.59375 56 
Q 45.5625 56 51.78125 48.09375 
Q 58.015625 40.1875 58.015625 27.296875 
Q 58.015625 14.40625 51.78125 6.484375 
Q 45.5625 -1.421875 35.59375 -1.421875 
Q 29.59375 -1.421875 25.265625 0.953125 
Q 20.953125 3.328125 18.109375 8.203125 
L 18.109375 0 
L 9.078125 0 
L 9.078125 75.984375 
L 18.109375 75.984375 
z
" id="DejaVuSans-62"/>
      <path d="M 9.421875 75.984375 
L 18.40625 75.984375 
L 18.40625 0 
L 9.421875 0 
z
" id="DejaVuSans-6c"/>
      <path d="M 45.40625 46.390625 
L 45.40625 75.984375 
L 54.390625 75.984375 
L 54.390625 0 
L 45.40625 0 
L 45.40625 8.203125 
Q 42.578125 3.328125 38.25 0.953125 
Q 33.9375 -1.421875 27.875 -1.421875 
Q 17.96875 -1.421875 11.734375 6.484375 
Q 5.515625 14.40625 5.515625 27.296875 
Q 5.515625 40.1875 11.734375 48.09375 
Q 17.96875 56 27.875 56 
Q 33.9375 56 38.25 53.625 
Q 42.578125 51.265625 45.40625 46.390625 
z
M 14.796875 27.296875 
Q 14.796875 17.390625 18.875 11.75 
Q 22.953125 6.109375 30.078125 6.109375 
Q 37.203125 6.109375 41.296875 11.75 
Q 45.40625 17.390625 45.40625 27.296875 
Q 45.40625 37.203125 41.296875 42.84375 
Q 37.203125 48.484375 30.078125 48.484375 
Q 22.953125 48.484375 18.875 42.84375 
Q 14.796875 37.203125 14.796875 27.296875 
z
" id="DejaVuSans-64"/>
      <path d="M 34.28125 27.484375 
Q 23.390625 27.484375 19.1875 25 
Q 14.984375 22.515625 14.984375 16.5 
Q 14.984375 11.71875 18.140625 8.90625 
Q 21.296875 6.109375 26.703125 6.109375 
Q 34.1875 6.109375 38.703125 11.40625 
Q 43.21875 16.703125 43.21875 25.484375 
L 43.21875 27.484375 
z
M 52.203125 31.203125 
L 52.203125 0 
L 43.21875 0 
L 43.21875 8.296875 
Q 40.140625 3.328125 35.546875 0.953125 
Q 30.953125 -1.421875 24.3125 -1.421875 
Q 15.921875 -1.421875 10.953125 3.296875 
Q 6 8.015625 6 15.921875 
Q 6 25.140625 12.171875 29.828125 
Q 18.359375 34.515625 30.609375 34.515625 
L 43.21875 34.515625 
L 43.21875 35.40625 
Q 43.21875 41.609375 39.140625 45 
Q 35.0625 48.390625 27.6875 48.390625 
Q 23 48.390625 18.546875 47.265625 
Q 14.109375 46.140625 10.015625 43.890625 
L 10.015625 52.203125 
Q 14.9375 54.109375 19.578125 55.046875 
Q 24.21875 56 28.609375 56 
Q 40.484375 56 46.34375 49.84375 
Q 52.203125 43.703125 52.203125 31.203125 
z
" id="DejaVuSans-61"/>
      <path d="M 8.5 21.578125 
L 8.5 54.6875 
L 17.484375 54.6875 
L 17.484375 21.921875 
Q 17.484375 14.15625 20.5 10.265625 
Q 23.53125 6.390625 29.59375 6.390625 
Q 36.859375 6.390625 41.078125 11.03125 
Q 45.3125 15.671875 45.3125 23.6875 
L 45.3125 54.6875 
L 54.296875 54.6875 
L 54.296875 0 
L 45.3125 0 
L 45.3125 8.40625 
Q 42.046875 3.421875 37.71875 1 
Q 33.40625 -1.421875 27.6875 -1.421875 
Q 18.265625 -1.421875 13.375 4.4375 
Q 8.5 10.296875 8.5 21.578125 
z
M 31.109375 56 
z
" id="DejaVuSans-75"/>
      <path d="M 34.1875 63.1875 
L 20.796875 26.90625 
L 47.609375 26.90625 
z
M 28.609375 72.90625 
L 39.796875 72.90625 
L 67.578125 0 
L 57.328125 0 
L 50.6875 18.703125 
L 17.828125 18.703125 
L 11.1875 0 
L 0.78125 0 
z
" id="DejaVuSans-41"/>
      <path d="M 25.390625 72.90625 
L 33.6875 72.90625 
L 8.296875 -9.28125 
L 0 -9.28125 
z
" id="DejaVuSans-2f"/>
     </defs>
     <g transform="translate(15.688713 126.580844)rotate(-90)scale(0.1 -0.1)">
      <use xlink:href="#DejaVuSans-53"/>
      <use x="63.476562" xlink:href="#DejaVuSans-65"/>
      <use x="125" xlink:href="#DejaVuSans-6e"/>
      <use x="188.378906" xlink:href="#DejaVuSans-73"/>
      <use x="240.478516" xlink:href="#DejaVuSans-69"/>
      <use x="268.261719" xlink:href="#DejaVuSans-62"/>
      <use x="331.738281" xlink:href="#DejaVuSans-69"/>
      <use x="359.521484" xlink:href="#DejaVuSans-6c"/>
      <use x="387.304688" xlink:href="#DejaVuSans-69"/>
      <use x="415.087891" xlink:href="#DejaVuSans-64"/>
      <use x="478.564453" xlink:href="#DejaVuSans-61"/>
      <use x="539.84375" xlink:href="#DejaVuSans-64"/>
      <use x="603.320312" xlink:href="#DejaVuSans-20"/>
      <use x="635.107422" xlink:href="#DejaVuSans-28"/>
      <use x="674.121094" xlink:href="#DejaVuSans-75"/>
      <use x="737.5" xlink:href="#DejaVuSans-41"/>
      <use x="805.908203" xlink:href="#DejaVuSans-2f"/>
      <use x="839.599609" xlink:href="#DejaVuSans-47"/>
      <use x="917.089844" xlink:href="#DejaVuSans-79"/>
      <use x="976.269531" xlink:href="#DejaVuSans-29"/>
     </g>
    </g>
   </g>
   <g id="line2d_13">
    <defs>
     <path d="M 0 1.5 
C 0.397805 1.5 0.77937 1.341951 1.06066 1.06066 
C 1.341951 0.77937 1.5 0.397805 1.5 0 
C 1.5 -0.397805 1.341951 -0.77937 1.06066 -1.06066 
C 0.77937 -1.341951 0.397805 -1.5 0 -1.5 
C -0.397805 -1.5 -0.77937 -1.341951 -1.06066 -1.06066 
C -1.341951 -0.77937 -1.5 -0.397805 -1.5 0 
C -1.5 0.397805 -1.341951 0.77937 -1.06066 1.06066 
C -0.77937 1.341951 -0.397805 1.5 0 1.5 
z
" id="md33d52636c" style="stroke:#1f77b4;"/>
    </defs>
    <g clip-path="url(#pb99769063f)">
     <use style="fill:#1f77b4;stroke:#1f77b4;" x="48.028745" xlink:href="#md33d52636c" y="108.112201"/>
     <use style="fill:#1f77b4;stroke:#1f77b4;" x="49.842731" xlink:href="#md33d52636c" y="114.506459"/>
     <use style="fill:#1f77b4;stroke:#1f77b4;" x="51.656717" xlink:href="#md33d52636c" y="118.827614"/>
     <use style="fill:#1f77b4;stroke:#1f77b4;" x="53.470703" xlink:href="#md33d52636c" y="118.623834"/>
     <use style="fill:#1f77b4;stroke:#1f77b4;" x="55.284689" xlink:href="#md33d52636c" y="119.997818"/>
     <use style="fill:#1f77b4;stroke:#1f77b4;" x="57.098674" xlink:href="#md33d52636c" y="116.801194"/>
     <use style="fill:#1f77b4;stroke:#1f77b4;" x="58.91266" xlink:href="#md33d52636c" y="116.072242"/>
     <use style="fill:#1f77b4;stroke:#1f77b4;" x="60.726646" xlink:href="#md33d52636c" y="117.457303"/>
     <use style="fill:#1f77b4;stroke:#1f77b4;" x="62.540632" xlink:href="#md33d52636c" y="116.133637"/>
     <use style="fill:#1f77b4;stroke:#1f77b4;" x="64.354618" xlink:href="#md33d52636c" y="117.06451"/>
     <use style="fill:#1f77b4;stroke:#1f77b4;" x="66.168603" xlink:href="#md33d52636c" y="113.019898"/>
     <use style="fill:#1f77b4;stroke:#1f77b4;" x="67.982589" xlink:href="#md33d52636c" y="114.275224"/>
     <use style="fill:#1f77b4;stroke:#1f77b4;" x="69.796575" xlink:href="#md33d52636c" y="114.056295"/>
     <use style="fill:#1f77b4;stroke:#1f77b4;" x="71.610561" xlink:href="#md33d52636c" y="113.011877"/>
     <use style="fill:#1f77b4;stroke:#1f77b4;" x="73.424547" xlink:href="#md33d52636c" y="113.628779"/>
     <use style="fill:#1f77b4;stroke:#1f77b4;" x="75.238532" xlink:href="#md33d52636c" y="111.285575"/>
     <use style="fill:#1f77b4;stroke:#1f77b4;" x="77.052518" xlink:href="#md33d52636c" y="111.837312"/>
     <use style="fill:#1f77b4;stroke:#1f77b4;" x="78.866504" xlink:href="#md33d52636c" y="112.118402"/>
     <use style="fill:#1f77b4;stroke:#1f77b4;" x="80.68049" xlink:href="#md33d52636c" y="110.60522"/>
     <use style="fill:#1f77b4;stroke:#1f77b4;" x="82.494476" xlink:href="#md33d52636c" y="109.508285"/>
     <use style="fill:#1f77b4;stroke:#1f77b4;" x="84.308461" xlink:href="#md33d52636c" y="109.744579"/>
     <use style="fill:#1f77b4;stroke:#1f77b4;" x="86.122447" xlink:href="#md33d52636c" y="109.584755"/>
     <use style="fill:#1f77b4;stroke:#1f77b4;" x="87.936433" xlink:href="#md33d52636c" y="108.971366"/>
     <use style="fill:#1f77b4;stroke:#1f77b4;" x="89.750419" xlink:href="#md33d52636c" y="109.859929"/>
     <use style="fill:#1f77b4;stroke:#1f77b4;" x="91.564405" xlink:href="#md33d52636c" y="108.095826"/>
     <use style="fill:#1f77b4;stroke:#1f77b4;" x="93.378391" xlink:href="#md33d52636c" y="107.240164"/>
     <use style="fill:#1f77b4;stroke:#1f77b4;" x="95.192376" xlink:href="#md33d52636c" y="107.580705"/>
     <use style="fill:#1f77b4;stroke:#1f77b4;" x="97.006362" xlink:href="#md33d52636c" y="106.953717"/>
     <use style="fill:#1f77b4;stroke:#1f77b4;" x="98.820348" xlink:href="#md33d52636c" y="106.042253"/>
     <use style="fill:#1f77b4;stroke:#1f77b4;" x="100.634334" xlink:href="#md33d52636c" y="107.528073"/>
     <use style="fill:#1f77b4;stroke:#1f77b4;" x="102.44832" xlink:href="#md33d52636c" y="106.514619"/>
     <use style="fill:#1f77b4;stroke:#1f77b4;" x="104.262305" xlink:href="#md33d52636c" y="104.374811"/>
     <use style="fill:#1f77b4;stroke:#1f77b4;" x="106.076291" xlink:href="#md33d52636c" y="106.529809"/>
     <use style="fill:#1f77b4;stroke:#1f77b4;" x="107.890277" xlink:href="#md33d52636c" y="103.543618"/>
     <use style="fill:#1f77b4;stroke:#1f77b4;" x="109.704263" xlink:href="#md33d52636c" y="105.890207"/>
     <use style="fill:#1f77b4;stroke:#1f77b4;" x="111.518249" xlink:href="#md33d52636c" y="104.434402"/>
     <use style="fill:#1f77b4;stroke:#1f77b4;" x="113.332234" xlink:href="#md33d52636c" y="103.973097"/>
     <use style="fill:#1f77b4;stroke:#1f77b4;" x="115.14622" xlink:href="#md33d52636c" y="102.856413"/>
     <use style="fill:#1f77b4;stroke:#1f77b4;" x="116.960206" xlink:href="#md33d52636c" y="104.499749"/>
     <use style="fill:#1f77b4;stroke:#1f77b4;" x="118.774192" xlink:href="#md33d52636c" y="103.777721"/>
     <use style="fill:#1f77b4;stroke:#1f77b4;" x="120.588178" xlink:href="#md33d52636c" y="103.188274"/>
     <use style="fill:#1f77b4;stroke:#1f77b4;" x="122.402163" xlink:href="#md33d52636c" y="103.25145"/>
     <use style="fill:#1f77b4;stroke:#1f77b4;" x="124.216149" xlink:href="#md33d52636c" y="101.798155"/>
     <use style="fill:#1f77b4;stroke:#1f77b4;" x="126.030135" xlink:href="#md33d52636c" y="101.95074"/>
     <use style="fill:#1f77b4;stroke:#1f77b4;" x="127.844121" xlink:href="#md33d52636c" y="101.151146"/>
     <use style="fill:#1f77b4;stroke:#1f77b4;" x="129.658107" xlink:href="#md33d52636c" y="102.175662"/>
     <use style="fill:#1f77b4;stroke:#1f77b4;" x="131.472092" xlink:href="#md33d52636c" y="100.953764"/>
     <use style="fill:#1f77b4;stroke:#1f77b4;" x="133.286078" xlink:href="#md33d52636c" y="100.821333"/>
     <use style="fill:#1f77b4;stroke:#1f77b4;" x="135.100064" xlink:href="#md33d52636c" y="99.512648"/>
     <use style="fill:#1f77b4;stroke:#1f77b4;" x="136.91405" xlink:href="#md33d52636c" y="102.806589"/>
     <use style="fill:#1f77b4;stroke:#1f77b4;" x="138.728036" xlink:href="#md33d52636c" y="99.789748"/>
     <use style="fill:#1f77b4;stroke:#1f77b4;" x="140.542021" xlink:href="#md33d52636c" y="99.581668"/>
     <use style="fill:#1f77b4;stroke:#1f77b4;" x="142.356007" xlink:href="#md33d52636c" y="99.083439"/>
     <use style="fill:#1f77b4;stroke:#1f77b4;" x="144.169993" xlink:href="#md33d52636c" y="100.021976"/>
     <use style="fill:#1f77b4;stroke:#1f77b4;" x="145.983979" xlink:href="#md33d52636c" y="99.690357"/>
     <use style="fill:#1f77b4;stroke:#1f77b4;" x="147.797965" xlink:href="#md33d52636c" y="99.092435"/>
     <use style="fill:#1f77b4;stroke:#1f77b4;" x="149.61195" xlink:href="#md33d52636c" y="98.759748"/>
     <use style="fill:#1f77b4;stroke:#1f77b4;" x="151.425936" xlink:href="#md33d52636c" y="98.088341"/>
     <use style="fill:#1f77b4;stroke:#1f77b4;" x="153.239922" xlink:href="#md33d52636c" y="98.067664"/>
     <use style="fill:#1f77b4;stroke:#1f77b4;" x="155.053908" xlink:href="#md33d52636c" y="98.494721"/>
     <use style="fill:#1f77b4;stroke:#1f77b4;" x="156.867894" xlink:href="#md33d52636c" y="97.540446"/>
     <use style="fill:#1f77b4;stroke:#1f77b4;" x="158.681879" xlink:href="#md33d52636c" y="97.562208"/>
     <use style="fill:#1f77b4;stroke:#1f77b4;" x="160.495865" xlink:href="#md33d52636c" y="98.568333"/>
     <use style="fill:#1f77b4;stroke:#1f77b4;" x="162.309851" xlink:href="#md33d52636c" y="97.460026"/>
     <use style="fill:#1f77b4;stroke:#1f77b4;" x="164.123837" xlink:href="#md33d52636c" y="97.91901"/>
     <use style="fill:#1f77b4;stroke:#1f77b4;" x="165.937823" xlink:href="#md33d52636c" y="97.74972"/>
     <use style="fill:#1f77b4;stroke:#1f77b4;" x="167.751808" xlink:href="#md33d52636c" y="97.007611"/>
     <use style="fill:#1f77b4;stroke:#1f77b4;" x="169.565794" xlink:href="#md33d52636c" y="96.567809"/>
     <use style="fill:#1f77b4;stroke:#1f77b4;" x="171.37978" xlink:href="#md33d52636c" y="96.765953"/>
     <use style="fill:#1f77b4;stroke:#1f77b4;" x="173.193766" xlink:href="#md33d52636c" y="97.58461"/>
     <use style="fill:#1f77b4;stroke:#1f77b4;" x="175.007752" xlink:href="#md33d52636c" y="98.60908"/>
     <use style="fill:#1f77b4;stroke:#1f77b4;" x="176.821737" xlink:href="#md33d52636c" y="94.510278"/>
     <use style="fill:#1f77b4;stroke:#1f77b4;" x="178.635723" xlink:href="#md33d52636c" y="97.550259"/>
     <use style="fill:#1f77b4;stroke:#1f77b4;" x="180.449709" xlink:href="#md33d52636c" y="95.935207"/>
     <use style="fill:#1f77b4;stroke:#1f77b4;" x="182.263695" xlink:href="#md33d52636c" y="96.946865"/>
     <use style="fill:#1f77b4;stroke:#1f77b4;" x="184.077681" xlink:href="#md33d52636c" y="97.893762"/>
     <use style="fill:#1f77b4;stroke:#1f77b4;" x="185.891666" xlink:href="#md33d52636c" y="95.97588"/>
     <use style="fill:#1f77b4;stroke:#1f77b4;" x="187.705652" xlink:href="#md33d52636c" y="97.769009"/>
     <use style="fill:#1f77b4;stroke:#1f77b4;" x="189.519638" xlink:href="#md33d52636c" y="96.837675"/>
     <use style="fill:#1f77b4;stroke:#1f77b4;" x="191.333624" xlink:href="#md33d52636c" y="96.584274"/>
     <use style="fill:#1f77b4;stroke:#1f77b4;" x="193.14761" xlink:href="#md33d52636c" y="96.839909"/>
     <use style="fill:#1f77b4;stroke:#1f77b4;" x="194.961595" xlink:href="#md33d52636c" y="96.844051"/>
     <use style="fill:#1f77b4;stroke:#1f77b4;" x="196.775581" xlink:href="#md33d52636c" y="97.36573"/>
     <use style="fill:#1f77b4;stroke:#1f77b4;" x="198.589567" xlink:href="#md33d52636c" y="97.275248"/>
     <use style="fill:#1f77b4;stroke:#1f77b4;" x="200.403553" xlink:href="#md33d52636c" y="96.923684"/>
     <use style="fill:#1f77b4;stroke:#1f77b4;" x="202.217539" xlink:href="#md33d52636c" y="98.008771"/>
     <use style="fill:#1f77b4;stroke:#1f77b4;" x="204.031524" xlink:href="#md33d52636c" y="97.362385"/>
     <use style="fill:#1f77b4;stroke:#1f77b4;" x="205.84551" xlink:href="#md33d52636c" y="97.80279"/>
     <use style="fill:#1f77b4;stroke:#1f77b4;" x="207.659496" xlink:href="#md33d52636c" y="97.419507"/>
     <use style="fill:#1f77b4;stroke:#1f77b4;" x="209.473482" xlink:href="#md33d52636c" y="97.771788"/>
     <use style="fill:#1f77b4;stroke:#1f77b4;" x="211.287468" xlink:href="#md33d52636c" y="98.022803"/>
     <use style="fill:#1f77b4;stroke:#1f77b4;" x="213.101453" xlink:href="#md33d52636c" y="99.052339"/>
     <use style="fill:#1f77b4;stroke:#1f77b4;" x="214.915439" xlink:href="#md33d52636c" y="99.25764"/>
     <use style="fill:#1f77b4;stroke:#1f77b4;" x="216.729425" xlink:href="#md33d52636c" y="97.562634"/>
     <use style="fill:#1f77b4;stroke:#1f77b4;" x="218.543411" xlink:href="#md33d52636c" y="100.598752"/>
     <use style="fill:#1f77b4;stroke:#1f77b4;" x="220.357397" xlink:href="#md33d52636c" y="98.101677"/>
     <use style="fill:#1f77b4;stroke:#1f77b4;" x="222.171382" xlink:href="#md33d52636c" y="100.154129"/>
     <use style="fill:#1f77b4;stroke:#1f77b4;" x="223.985368" xlink:href="#md33d52636c" y="100.566209"/>
     <use style="fill:#1f77b4;stroke:#1f77b4;" x="225.799354" xlink:href="#md33d52636c" y="100.045632"/>
    </g>
   </g>
   <g id="line2d_14">
    <path clip-path="url(#pb99769063f)" d="M 48.028745 108.445809 
L 48.455566 108.51592 
L 48.460647 107.218359 
L 48.567352 107.236104 
L 50.223821 107.513362 
L 50.228902 106.198487 
L 50.338148 106.217084 
L 51.997157 106.501349 
L 52.002238 105.16888 
L 52.111484 105.187919 
L 53.773034 105.479403 
L 53.778115 104.129048 
L 53.894982 104.149903 
L 55.556532 104.448382 
L 55.561614 103.079855 
L 55.668319 103.099354 
L 57.342572 103.407356 
L 57.347653 102.020357 
L 57.454358 102.040328 
L 59.131152 102.356274 
L 59.136233 100.950496 
L 59.2531 100.972902 
L 60.927353 101.296075 
L 60.932434 99.871217 
L 61.04168 99.892674 
L 62.726095 100.225776 
L 62.731177 98.781521 
L 62.850585 98.805553 
L 64.532459 99.146374 
L 64.537541 97.682412 
L 64.644246 97.704419 
L 66.341364 98.056851 
L 66.346445 96.572855 
L 66.455691 96.595947 
L 68.15535 96.957723 
L 68.160431 95.453365 
L 68.274758 95.478139 
L 69.976957 95.849566 
L 69.982039 94.324523 
L 70.088744 94.348227 
L 71.801106 94.731306 
L 71.806187 93.185232 
L 71.915432 93.210118 
L 73.630335 93.603519 
L 73.635416 92.036074 
L 73.757365 92.064564 
L 75.467186 92.466852 
L 75.472267 90.877695 
L 75.581513 90.903871 
L 77.309119 91.320785 
L 77.3142 89.709563 
L 77.423445 89.736416 
L 79.156132 90.165382 
L 79.161213 88.531739 
L 79.270459 88.55929 
L 81.010767 89.001367 
L 81.015849 87.344947 
L 81.122554 87.372561 
L 82.867943 87.827542 
L 82.873025 86.14797 
L 83.007676 86.183737 
L 84.735282 86.646009 
L 84.740363 84.942928 
L 84.849609 84.972712 
L 86.607701 85.455579 
L 86.612782 83.728613 
L 86.719487 83.75848 
L 88.485202 84.256381 
L 88.490283 82.505147 
L 88.599529 82.536545 
L 90.370324 83.049296 
L 90.375406 81.273416 
L 90.484651 81.305661 
L 92.263069 81.83454 
L 92.26815 80.033633 
L 92.377396 80.066754 
L 94.160894 80.61157 
L 94.165975 78.78524 
L 94.282843 78.82164 
L 96.068882 79.382185 
L 96.073963 77.530051 
L 96.180668 77.5642 
L 97.981951 78.145079 
L 97.987032 76.266739 
L 98.096278 76.302667 
L 99.902642 76.901321 
L 99.907723 74.996379 
L 100.027131 75.036744 
L 101.833495 75.652119 
L 101.838576 73.720184 
L 101.947822 73.758147 
L 103.76943 74.396104 
L 103.774511 72.436765 
L 103.896459 72.480339 
L 105.715526 73.135428 
L 105.720608 71.148291 
L 105.834934 71.190299 
L 107.669245 71.869632 
L 107.671786 71.82899 
L 107.674326 69.85429 
L 107.783572 69.895576 
L 109.633126 70.600134 
L 109.638207 68.556193 
L 109.749993 68.599654 
L 111.604629 69.326494 
L 111.607169 69.305441 
L 111.60971 67.253546 
L 111.718956 67.297247 
L 113.586294 68.050243 
L 113.588835 67.975404 
L 113.591375 65.947892 
L 113.700621 65.992862 
L 115.578122 66.772007 
L 115.583203 64.639858 
L 115.69753 64.688299 
L 117.580111 65.492484 
L 117.585193 63.330144 
L 117.694438 63.377796 
L 119.592264 64.212404 
L 119.597345 62.019485 
L 119.70405 62.067407 
L 121.614578 62.932549 
L 121.61966 60.708663 
L 121.726365 60.758016 
L 123.647056 61.653755 
L 123.652137 59.39852 
L 123.761382 59.450565 
L 125.689695 60.376911 
L 125.694776 58.08995 
L 125.831968 58.157292 
L 127.747578 59.105492 
L 127.752659 56.786469 
L 127.859364 56.840429 
L 129.815624 57.838068 
L 129.820705 55.486621 
L 129.92995 55.543556 
L 131.896372 56.577097 
L 131.901453 54.192892 
L 132.008158 54.250213 
L 133.989823 55.323847 
L 133.994905 52.906562 
L 134.10415 52.967065 
L 136.095978 54.079667 
L 136.101059 51.628994 
L 136.212845 51.692832 
L 138.217376 52.847467 
L 138.222457 50.363133 
L 138.331703 50.427475 
L 140.354017 51.62891 
L 140.359098 49.110663 
L 140.465803 49.17549 
L 142.503362 50.424182 
L 142.508443 47.871769 
L 142.620229 47.941834 
L 144.67049 49.238153 
L 144.675572 46.651387 
L 144.784817 46.722041 
L 146.852863 48.071311 
L 146.857944 45.450014 
L 146.96719 45.522931 
L 149.053019 46.927463 
L 149.0581 44.271508 
L 149.167346 44.346775 
L 151.268419 45.807197 
L 151.27096 45.728812 
L 151.2735 43.11647 
L 151.382746 43.194174 
L 153.504144 44.716524 
L 153.506685 44.610794 
L 153.509225 41.990999 
L 153.618471 42.071233 
L 155.760194 43.658248 
L 155.765275 40.897946 
L 155.87452 40.980805 
L 158.036568 42.635363 
L 158.041649 39.840356 
L 158.148354 39.923949 
L 160.330726 41.649001 
L 160.335808 38.819388 
L 160.452675 38.91397 
L 162.650291 40.708575 
L 162.655372 37.844606 
L 162.762077 37.933827 
L 164.99018 39.813695 
L 164.995261 36.915631 
L 165.109588 37.014414 
L 167.355475 38.972392 
L 167.360557 36.040634 
L 167.477424 36.144985 
L 169.746177 38.189052 
L 169.751258 35.224092 
L 169.880828 35.343672 
L 172.164824 37.470618 
L 172.169905 34.473084 
L 172.279151 34.577293 
L 174.611419 36.822125 
L 174.6165 33.792756 
L 174.725745 33.900483 
L 177.085959 36.248841 
L 177.091041 33.188502 
L 177.205367 33.30505 
L 179.593528 35.76146 
L 179.598609 32.671234 
L 179.710395 32.78905 
L 182.134124 35.366348 
L 182.139206 32.24748 
L 182.248451 32.36652 
L 184.710289 35.072932 
L 184.71537 31.926888 
L 184.824616 32.049966 
L 187.322022 34.888408 
L 187.324563 34.82304 
L 187.327103 31.716862 
L 187.436349 31.84411 
L 189.976945 34.82919 
L 189.982027 31.634182 
L 190.091272 31.765731 
L 192.672518 34.900828 
L 192.677599 31.684623 
L 192.786845 31.820609 
L 195.413822 35.118494 
L 195.418903 31.88376 
L 195.525608 32.021045 
L 198.203396 35.495176 
L 198.208478 32.244988 
L 198.315183 32.386861 
L 201.043783 36.044564 
L 201.048864 32.782461 
L 201.160651 32.936018 
L 203.942604 36.788175 
L 203.947685 33.518352 
L 204.05693 33.673348 
L 206.899858 37.738307 
L 206.904939 34.465538 
L 207.019266 34.633011 
L 209.925708 38.92262 
L 209.930789 35.652617 
L 210.037494 35.813923 
L 213.020154 40.355335 
L 213.025236 37.094662 
L 213.134481 37.264995 
L 216.193359 42.066948 
L 216.19844 38.823484 
L 216.307686 38.999043 
L 219.450404 44.081752 
L 219.455485 40.864855 
L 219.567271 41.04985 
L 222.80145 46.433595 
L 222.806532 43.254665 
L 222.923399 43.453629 
L 226.256661 49.158676 
L 226.261743 46.031818 
L 226.370988 46.222915 
L 229.635655 51.958654 
L 229.635655 51.958654 
" style="fill:none;stroke:#ff7f0e;stroke-linecap:square;stroke-width:1.5;"/>
   </g>
   <g id="patch_3">
    <path d="M 38.9484 124.416 
L 38.9484 27.216 
" style="fill:none;stroke:#000000;stroke-linecap:square;stroke-linejoin:miter;stroke-width:0.8;"/>
   </g>
   <g id="patch_4">
    <path d="M 238.716 124.416 
L 238.716 27.216 
" style="fill:none;stroke:#000000;stroke-linecap:square;stroke-linejoin:miter;stroke-width:0.8;"/>
   </g>
   <g id="patch_5">
    <path d="M 38.9484 124.416 
L 238.716 124.416 
" style="fill:none;stroke:#000000;stroke-linecap:square;stroke-linejoin:miter;stroke-width:0.8;"/>
   </g>
   <g id="patch_6">
    <path d="M 38.9484 27.216 
L 238.716 27.216 
" style="fill:none;stroke:#000000;stroke-linecap:square;stroke-linejoin:miter;stroke-width:0.8;"/>
   </g>
   <g id="legend_1">
    <g id="patch_7">
     <path d="M 150.617563 91.994125 
L 231.716 91.994125 
Q 233.716 91.994125 233.716 89.994125 
L 233.716 61.637875 
Q 233.716 59.637875 231.716 59.637875 
L 150.617563 59.637875 
Q 148.617563 59.637875 148.617563 61.637875 
L 148.617563 89.994125 
Q 148.617563 91.994125 150.617563 91.994125 
z
" style="fill:#ffffff;opacity:0.8;stroke:#cccccc;stroke-linejoin:miter;"/>
    </g>
    <g id="line2d_15"/>
    <g id="line2d_16">
     <g>
      <use style="fill:#1f77b4;stroke:#1f77b4;" x="162.617563" xlink:href="#md33d52636c" y="67.736313"/>
     </g>
    </g>
    <g id="text_15">
     <!-- Medido -->
     <defs>
      <path d="M 9.8125 72.90625 
L 24.515625 72.90625 
L 43.109375 23.296875 
L 61.8125 72.90625 
L 76.515625 72.90625 
L 76.515625 0 
L 66.890625 0 
L 66.890625 64.015625 
L 48.09375 14.015625 
L 38.1875 14.015625 
L 19.390625 64.015625 
L 19.390625 0 
L 9.8125 0 
z
" id="DejaVuSans-4d"/>
     </defs>
     <g transform="translate(180.617563 71.236313)scale(0.1 -0.1)">
      <use xlink:href="#DejaVuSans-4d"/>
      <use x="86.279297" xlink:href="#DejaVuSans-65"/>
      <use x="147.802734" xlink:href="#DejaVuSans-64"/>
      <use x="211.279297" xlink:href="#DejaVuSans-69"/>
      <use x="239.0625" xlink:href="#DejaVuSans-64"/>
      <use x="302.539062" xlink:href="#DejaVuSans-6f"/>
     </g>
    </g>
    <g id="line2d_17">
     <path d="M 152.617563 82.414438 
L 172.617563 82.414438 
" style="fill:none;stroke:#ff7f0e;stroke-linecap:square;stroke-width:1.5;"/>
    </g>
    <g id="line2d_18"/>
    <g id="text_16">
     <!-- Calculado -->
     <defs>
      <path d="M 64.40625 67.28125 
L 64.40625 56.890625 
Q 59.421875 61.53125 53.78125 63.8125 
Q 48.140625 66.109375 41.796875 66.109375 
Q 29.296875 66.109375 22.65625 58.46875 
Q 16.015625 50.828125 16.015625 36.375 
Q 16.015625 21.96875 22.65625 14.328125 
Q 29.296875 6.6875 41.796875 6.6875 
Q 48.140625 6.6875 53.78125 8.984375 
Q 59.421875 11.28125 64.40625 15.921875 
L 64.40625 5.609375 
Q 59.234375 2.09375 53.4375 0.328125 
Q 47.65625 -1.421875 41.21875 -1.421875 
Q 24.65625 -1.421875 15.125 8.703125 
Q 5.609375 18.84375 5.609375 36.375 
Q 5.609375 53.953125 15.125 64.078125 
Q 24.65625 74.21875 41.21875 74.21875 
Q 47.75 74.21875 53.53125 72.484375 
Q 59.328125 70.75 64.40625 67.28125 
z
" id="DejaVuSans-43"/>
      <path d="M 48.78125 52.59375 
L 48.78125 44.1875 
Q 44.96875 46.296875 41.140625 47.34375 
Q 37.3125 48.390625 33.40625 48.390625 
Q 24.65625 48.390625 19.8125 42.84375 
Q 14.984375 37.3125 14.984375 27.296875 
Q 14.984375 17.28125 19.8125 11.734375 
Q 24.65625 6.203125 33.40625 6.203125 
Q 37.3125 6.203125 41.140625 7.25 
Q 44.96875 8.296875 48.78125 10.40625 
L 48.78125 2.09375 
Q 45.015625 0.34375 40.984375 -0.53125 
Q 36.96875 -1.421875 32.421875 -1.421875 
Q 20.0625 -1.421875 12.78125 6.34375 
Q 5.515625 14.109375 5.515625 27.296875 
Q 5.515625 40.671875 12.859375 48.328125 
Q 20.21875 56 33.015625 56 
Q 37.15625 56 41.109375 55.140625 
Q 45.0625 54.296875 48.78125 52.59375 
z
" id="DejaVuSans-63"/>
     </defs>
     <g transform="translate(180.617563 85.914438)scale(0.1 -0.1)">
      <use xlink:href="#DejaVuSans-43"/>
      <use x="69.824219" xlink:href="#DejaVuSans-61"/>
      <use x="131.103516" xlink:href="#DejaVuSans-6c"/>
      <use x="158.886719" xlink:href="#DejaVuSans-63"/>
      <use x="213.867188" xlink:href="#DejaVuSans-75"/>
      <use x="277.246094" xlink:href="#DejaVuSans-6c"/>
      <use x="305.029297" xlink:href="#DejaVuSans-61"/>
      <use x="366.308594" xlink:href="#DejaVuSans-64"/>
      <use x="429.785156" xlink:href="#DejaVuSans-6f"/>
     </g>
    </g>
   </g>
  </g>
 </g>
 <defs>
  <clipPath id="pb99769063f">
   <rect height="97.2" width="199.7676" x="38.9484" y="27.216"/>
  </clipPath>
 </defs>
</svg>
