<?xml version="1.0" encoding="UTF-8" standalone="no"?>
<!-- Created with Inkscape (http://www.inkscape.org/) -->

<svg
   xmlns:dc="http://purl.org/dc/elements/1.1/"
   xmlns:cc="http://creativecommons.org/ns#"
   xmlns:rdf="http://www.w3.org/1999/02/22-rdf-syntax-ns#"
   xmlns:svg="http://www.w3.org/2000/svg"
   xmlns="http://www.w3.org/2000/svg"
   xmlns:sodipodi="http://sodipodi.sourceforge.net/DTD/sodipodi-0.dtd"
   xmlns:inkscape="http://www.inkscape.org/namespaces/inkscape"
   width="46.973389mm"
   height="19.854017mm"
   viewBox="0 0 166.44115 70.348879"
   id="svg4580"
   version="1.1"
   inkscape:version="0.91 r13725"
   sodipodi:docname="xfab.svg">
  <defs
     id="defs4582" />
  <sodipodi:namedview
     id="base"
     pagecolor="#ffffff"
     bordercolor="#666666"
     borderopacity="1.0"
     inkscape:pageopacity="0.0"
     inkscape:pageshadow="2"
     inkscape:zoom="2.8"
     inkscape:cx="47.649017"
     inkscape:cy="-12.223983"
     inkscape:document-units="px"
     inkscape:current-layer="layer1"
     showgrid="false"
     fit-margin-top="1"
     fit-margin-left="1"
     fit-margin-right="1"
     fit-margin-bottom="1"
     inkscape:window-width="1366"
     inkscape:window-height="739"
     inkscape:window-x="0"
     inkscape:window-y="0"
     inkscape:window-maximized="1" />
  <metadata
     id="metadata4585">
    <rdf:RDF>
      <cc:Work
         rdf:about="">
        <dc:format>image/svg+xml</dc:format>
        <dc:type
           rdf:resource="http://purl.org/dc/dcmitype/StillImage" />
        <dc:title></dc:title>
      </cc:Work>
    </rdf:RDF>
  </metadata>
  <g
     inkscape:label="Layer 1"
     inkscape:groupmode="layer"
     id="layer1"
     transform="translate(-305.35085,-239.27775)">
    <g
       transform="matrix(1.25,0,0,-1.25,-240.61209,1245.1173)"
       id="g4524">
      <g
         transform="translate(524.753,801.777)"
         id="g340">
        <path
           inkscape:connector-curvature="0"
           id="path342"
           style="fill:#231f20;fill-opacity:1;fill-rule:evenodd;stroke:none"
           d="m 0,0 14.637,-39.283 -6.092,0 -4.037,11.56 -14.974,0 -4.206,-11.56 -5.461,0 L -4.15,0 0,0 Z m 3.218,-23.794 c -1.887,5.47 -3.695,10.958 -5.832,17.958 l -0.113,0 c -2.246,-7.021 -4.242,-12.488 -6.224,-17.958 l 12.169,0" />
      </g>
      <g
         transform="translate(541.633,762.494)"
         id="g344">
        <path
           inkscape:connector-curvature="0"
           id="path346"
           style="fill:#231f20;fill-opacity:1;fill-rule:evenodd;stroke:none"
           d="m 0,0 0,39.283 12.169,0 c 5.833,0 10.207,-2.918 10.207,-8.025 0,-6.397 -4.991,-9.428 -8.019,-9.989 l 0,-0.112 C 19.516,20.989 24.787,17.79 24.787,11.392 24.787,4.826 19.179,0 11.048,0 L 0,0 Z m 5.44,22.448 2.691,0 c 4.711,0 8.805,3.255 8.805,7.463 0,3.48 -2.411,5.444 -6.898,5.444 l -4.598,0 0,-12.907 z m 0,-18.52 5.271,0 c 4.431,0 8.244,2.414 8.244,7.128 0,5.499 -4.71,7.463 -9.141,7.463 l -4.374,0 0,-14.591" />
      </g>
      <g
         transform="translate(459.264,778.569)"
         id="g348">
        <path
           inkscape:connector-curvature="0"
           id="path350"
           style="fill:#2350a9;fill-opacity:1;fill-rule:evenodd;stroke:none"
           d="m 0,0 -16.063,-16.075 7.324,0 8.739,8.95 8.739,-8.95 7.325,0 L 0,0" />
      </g>
      <g
         transform="translate(462.858,782.165)"
         id="g352">
        <path
           inkscape:connector-curvature="0"
           id="path354"
           style="fill:#2350a9;fill-opacity:1;fill-rule:evenodd;stroke:none"
           d="m 0,0 16.064,-16.074 0,7.329 L 7.12,0 l 8.944,8.745 0,7.33 L 0,0" />
      </g>
      <g
         transform="translate(459.264,785.762)"
         id="g356">
        <path
           inkscape:connector-curvature="0"
           id="path358"
           style="fill:#2350a9;fill-opacity:1;fill-rule:evenodd;stroke:none"
           d="m 0,0 16.063,16.075 -7.324,0 L 0,7.125 l -8.739,8.95 -7.325,0 L 0,0" />
      </g>
      <g
         transform="translate(455.669,782.165)"
         id="g360">
        <path
           inkscape:connector-curvature="0"
           id="path362"
           style="fill:#2350a9;fill-opacity:1;fill-rule:evenodd;stroke:none"
           d="m 0,0 -16.064,16.074 0,-7.329 L -7.12,0 l -8.944,-8.745 0,-7.33 L 0,0" />
      </g>
      <g
         transform="translate(508.098,797.848)"
         id="g364">
        <path
           inkscape:connector-curvature="0"
           id="path366"
           style="fill:#231f20;fill-opacity:1;fill-rule:evenodd;stroke:none"
           d="m 0,0 -13.908,0 -0.004,-14.927 12.228,0 0,-3.936 -12.228,0 0.004,-16.492 -5.44,0 0,39.283 L 0,3.928 0,0" />
      </g>
      <g
         transform="matrix(0.999327,0,0,-1,438.9509,751.3387)"
         style="font-variant:normal;font-weight:normal;font-size:7.87519979px;font-family:StoneSansITCTTMedium;-inkscape-font-specification:StoneSansITCTTMedium;writing-mode:lr-tb;fill:#231f20;fill-opacity:1;fill-rule:nonzero;stroke:none"
         id="text368">
        <path
           d="m 0.77290779,-5.7410514 1.15743901,0 1.465064,3.9068374 1.4727547,-3.9068374 1.157439,0 0,5.7410514 -0.7575265,0 0,-5.0412046 -1.4804453,3.9375999 -0.7805984,0 -1.4804453,-3.9375999 0,5.0412046 -0.75368121,0 0,-5.7410514 z"
           id="path5198"
           inkscape:connector-curvature="0" />
        <path
           d="m 8.0984188,-5.7410514 0.7767531,0 0,5.7410514 -0.7767531,0 0,-5.7410514 z"
           id="path5200"
           inkscape:connector-curvature="0" />
        <path
           d="m 10.051813,-5.7410514 0.834433,0 1.426611,2.1341484 1.434302,-2.1341484 0.834432,0 -1.84575,2.757089 L 14.704641,0 13.870209,0 12.255177,-2.4417734 10.62861,0 9.7903321,0 11.839884,-3.064714 10.051813,-5.7410514 Z"
           id="path5202"
           inkscape:connector-curvature="0" />
        <path
           d="m 15.535758,-5.7410514 3.629975,0 0,0.6537031 -2.853222,0 0,1.6996281 2.734017,0 0,0.6537031 -2.734017,0 0,2.08031399 2.922437,0 0,0.65370311 -3.69919,0 0,-5.7410514 z"
           id="path5204"
           inkscape:connector-curvature="0" />
        <path
           d="m 20.385564,-5.1027296 0,4.46440774 0.938256,0 q 1.188202,0 1.738081,-0.53834374 0.553725,-0.5383437 0.553725,-1.6996281 0,-1.1535937 -0.553725,-1.6880921 -0.549879,-0.5383438 -1.738081,-0.5383438 l -0.938256,0 z m -0.776753,-0.6383218 1.595805,0 q 1.668865,0 2.449464,0.6960015 0.780598,0.6921563 0.780598,2.1687562 0,1.4842906 -0.784444,2.18029216 Q 22.865791,0 21.204616,0 l -1.595805,0 0,-5.7410514 z"
           id="path5206"
           inkscape:connector-curvature="0" />
        <path
           d="m 31.722536,-5.5526311 0,0.7575265 q -0.442211,-0.2114921 -0.834433,-0.3153156 -0.392221,-0.1038234 -0.757526,-0.1038234 -0.634477,0 -0.980555,0.2461 -0.342233,0.2461 -0.342233,0.6998468 0,0.380686 0.226874,0.5767969 0.230719,0.1922656 0.86904,0.3114703 l 0.469129,0.096133 q 0.86904,0.1653484 1.280489,0.5844875 0.415293,0.4152937 0.415293,1.1151406 0,0.83443278 -0.561415,1.26510777 -0.557571,0.43067499 -1.638103,0.43067499 -0.407603,0 -0.869041,-0.0922875 -0.457592,-0.0922875 -0.949792,-0.27301718 l 0,-0.79982498 q 0.472973,0.26532656 0.92672,0.39991249 0.453747,0.13458594 0.892113,0.13458594 0.665239,0 1.026698,-0.26148125 0.361459,-0.26148128 0.361459,-0.74599058 0,-0.4229844 -0.261481,-0.6613938 -0.257636,-0.2384093 -0.849814,-0.357614 l -0.472973,-0.092287 q -0.869041,-0.1730391 -1.257417,-0.5421891 -0.388377,-0.3691499 -0.388377,-1.0266984 0,-0.7613718 0.534498,-1.1997374 0.538344,-0.4383656 1.480446,-0.4383656 0.403757,0 0.822897,0.073061 0.419139,0.073061 0.857504,0.2191828 z"
           id="path5208"
           inkscape:connector-curvature="0" />
        <path
           d="m 32.613917,-5.7410514 0.776753,0 0,5.7410514 -0.776753,0 0,-5.7410514 z"
           id="path5210"
           inkscape:connector-curvature="0" />
        <path
           d="m 38.758702,-0.81905154 0,-1.54197026 -1.268953,0 0,-0.6383219 2.038015,0 0,2.46484528 q -0.449901,0.31916093 -0.99209,0.48450936 -0.542189,0.16150312 -1.157439,0.16150312 -1.34586,0 -2.107231,-0.78444373 -0.757527,-0.78828903 -0.757527,-2.19182803 0,-1.4073844 0.757527,-2.1918281 0.761371,-0.788289 2.107231,-0.788289 0.561415,0 1.065151,0.1384312 0.507582,0.1384312 0.934411,0.4076031 l 0,0.8267422 q -0.430675,-0.3653047 -0.915184,-0.5498797 -0.484509,-0.184575 -1.019008,-0.184575 -1.053615,0 -1.584269,0.5883328 -0.526807,0.5883328 -0.526807,1.7534625 0,1.1612843 0.526807,1.7496171 0.530654,0.5883328 1.584269,0.5883328 0.411449,0 0.734455,-0.0692156 0.323006,-0.0730609 0.580642,-0.22302812 z"
           id="path5212"
           inkscape:connector-curvature="0" />
        <path
           d="m 40.823025,-5.7410514 1.045925,0 2.545597,4.80279517 0,-4.80279517 0.753681,0 0,5.7410514 -1.045925,0 -2.545596,-4.8027952 0,4.8027952 -0.753682,0 0,-5.7410514 z"
           id="path5214"
           inkscape:connector-curvature="0" />
        <path
           d="m 48.641937,-4.9758342 -1.053616,2.8570671 2.111077,0 -1.057461,-2.8570671 z m -0.438366,-0.7652172 0.880577,0 L 51.272131,0 l -0.807516,0 -0.522963,-1.4727546 -2.587895,0 L 46.830795,0 46.011743,0 48.203571,-5.7410514 Z"
           id="path5216"
           inkscape:connector-curvature="0" />
        <path
           d="m 51.686078,-5.7410514 0.776753,0 0,5.08734829 2.795542,0 0,0.65370311 -3.572295,0 0,-5.7410514 z"
           id="path5218"
           inkscape:connector-curvature="0" />
        <path
           d="m 58.335896,-5.7410514 3.299278,0 0,0.6537031 -2.522525,0 0,1.6919375 2.276425,0 0,0.6537031 -2.276425,0 0,2.7417077 -0.776753,0 0,-5.7410514 z"
           id="path5220"
           inkscape:connector-curvature="0" />
        <path
           d="m 64.613204,-5.2142436 q -0.845969,0 -1.34586,0.6306312 -0.496045,0.6306313 -0.496045,1.7188547 0,1.0843781 0.496045,1.7150093 0.499891,0.63063123 1.34586,0.63063123 0.845968,0 1.338168,-0.63063123 0.496046,-0.6306312 0.496046,-1.7150093 0,-1.0882234 -0.496046,-1.7188547 -0.4922,-0.6306312 -1.338168,-0.6306312 z m 0,-0.6306312 q 1.207428,0 1.930346,0.8113609 0.722919,0.8075156 0.722919,2.1687562 0,1.3573952 -0.722919,2.16875616 -0.722918,0.8075156 -1.930346,0.8075156 -1.211274,0 -1.938038,-0.8075156 -0.722919,-0.80751556 -0.722919,-2.16875616 0,-1.3612406 0.722919,-2.1687562 0.726764,-0.8113609 1.938038,-0.8113609 z"
           id="path5222"
           inkscape:connector-curvature="0" />
        <path
           d="m 68.606493,-5.7410514 0.780599,0 0,3.4876983 q 0,0.922875 0.334542,1.33047812 0.334542,0.40375781 1.084378,0.40375781 0.74599,0 1.080533,-0.40375781 0.334542,-0.40760312 0.334542,-1.33047812 l 0,-3.4876983 0.780598,0 0,3.5838311 q 0,1.1228313 -0.55757,1.69578281 -0.553725,0.57295155 -1.638103,0.57295155 -1.088224,0 -1.645794,-0.57295155 Q 68.606493,-1.034389 68.606493,-2.1572203 l 0,-3.5838311 z"
           id="path5224"
           inkscape:connector-curvature="0" />
        <path
           d="m 74.256398,-5.7410514 1.045925,0 2.545597,4.80279517 0,-4.80279517 0.753681,0 0,5.7410514 -1.045925,0 -2.545597,-4.8027952 0,4.8027952 -0.753681,0 0,-5.7410514 z"
           id="path5226"
           inkscape:connector-curvature="0" />
        <path
           d="m 80.933252,-5.1027296 0,4.46440774 0.938256,0 q 1.188201,0 1.738081,-0.53834374 0.553725,-0.5383437 0.553725,-1.6996281 0,-1.1535937 -0.553725,-1.6880921 -0.54988,-0.5383438 -1.738081,-0.5383438 l -0.938256,0 z m -0.776754,-0.6383218 1.595805,0 q 1.668866,0 2.449464,0.6960015 0.780599,0.6921563 0.780599,2.1687562 0,1.4842906 -0.784444,2.18029216 Q 83.413478,0 81.752303,0 l -1.595805,0 0,-5.7410514 z"
           id="path5228"
           inkscape:connector-curvature="0" />
        <path
           d="m 88.826329,-2.6917187 q 0.249946,0.084597 0.48451,0.3614594 0.238409,0.2768625 0.476818,0.7613718 L 90.575946,0 89.741514,0 89.007059,-1.4727546 Q 88.722506,-2.0495515 88.453334,-2.2379718 88.188007,-2.4263921 87.72657,-2.4263921 l -0.845969,0 0,2.4263921 -0.776753,0 0,-5.7410514 1.753462,0 q 0.9844,0 1.46891,0.4114484 0.484509,0.4114484 0.484509,1.2420359 0,0.5421891 -0.25379,0.8998031 -0.249946,0.3576141 -0.73061,0.4960453 z m -1.945728,-2.4110109 0,2.0380156 0.976709,0 q 0.561416,0 0.845969,-0.2576359 0.288399,-0.2614813 0.288399,-0.7652172 0,-0.5037359 -0.288399,-0.7575265 -0.284553,-0.257636 -0.845969,-0.257636 l -0.976709,0 z"
           id="path5230"
           inkscape:connector-curvature="0" />
        <path
           d="m 89.674484,-5.7410514 0.834433,0 1.591959,2.3610218 1.580423,-2.3610218 0.834433,0 -2.030325,3.0070343 0,2.7340171 -0.780598,0 0,-2.7340171 -2.030325,-3.0070343 z"
           id="path5232"
           inkscape:connector-curvature="0" />
        <path
           d="m 97.577229,-5.7410514 3.629971,0 0,0.6537031 -2.853218,0 0,1.6996281 2.734018,0 0,0.6537031 -2.734018,0 0,2.08031399 2.922438,0 0,0.65370311 -3.699191,0 0,-5.7410514 z"
           id="path5234"
           inkscape:connector-curvature="0" />
        <path
           d="m 101.37342,-5.7410514 0.83443,0 1.42661,2.1341484 1.4343,-2.1341484 0.83444,0 -1.84575,2.757089 L 106.02625,0 105.19181,0 103.57678,-2.4417734 101.95021,0 l -0.83827,0 2.04955,-3.064714 -1.78807,-2.6763374 z"
           id="path5236"
           inkscape:connector-curvature="0" />
        <path
           d="m 107.63412,-5.1027296 0,2.1572203 0.97671,0 q 0.54219,0 0.83828,-0.2807078 0.29608,-0.2807078 0.29608,-0.799825 0,-0.5152718 -0.29608,-0.7959796 -0.29609,-0.2807079 -0.83828,-0.2807079 l -0.97671,0 z m -0.77675,-0.6383218 1.75346,0 q 0.96517,0 1.45737,0.4383656 0.49605,0.4345203 0.49605,1.2766437 0,0.8498141 -0.49605,1.2843344 -0.4922,0.4345203 -1.45737,0.4345203 l -0.97671,0 0,2.3071874 -0.77675,0 0,-5.7410514 z"
           id="path5238"
           inkscape:connector-curvature="0" />
        <path
           d="m 111.2218,-5.7410514 3.62997,0 0,0.6537031 -2.85322,0 0,1.6996281 2.73402,0 0,0.6537031 -2.73402,0 0,2.08031399 2.92244,0 0,0.65370311 -3.69919,0 0,-5.7410514 z"
           id="path5240"
           inkscape:connector-curvature="0" />
        <path
           d="m 118.01733,-2.6917187 q 0.24995,0.084597 0.48451,0.3614594 0.23841,0.2768625 0.47682,0.7613718 L 119.76695,0 l -0.83443,0 -0.73446,-1.4727546 q -0.28455,-0.5767969 -0.55372,-0.7652172 -0.26533,-0.1884203 -0.72677,-0.1884203 l -0.84597,0 0,2.4263921 -0.77675,0 0,-5.7410514 1.75346,0 q 0.9844,0 1.46891,0.4114484 0.48451,0.4114484 0.48451,1.2420359 0,0.5421891 -0.25379,0.8998031 -0.24994,0.3576141 -0.73061,0.4960453 z m -1.94573,-2.4110109 0,2.0380156 0.97671,0 q 0.56142,0 0.84597,-0.2576359 0.2884,-0.2614813 0.2884,-0.7652172 0,-0.5037359 -0.2884,-0.7575265 -0.28455,-0.257636 -0.84597,-0.257636 l -0.97671,0 z"
           id="path5242"
           inkscape:connector-curvature="0" />
        <path
           d="m 119.06177,-5.7410514 4.85663,0 0,0.6537031 -2.03802,0 0,5.0873483 -0.7806,0 0,-5.0873483 -2.03801,0 0,-0.6537031 z"
           id="path5244"
           inkscape:connector-curvature="0" />
        <path
           d="m 127.87795,-5.5526311 0,0.7575265 q -0.44222,-0.2114921 -0.83444,-0.3153156 -0.39222,-0.1038234 -0.75752,-0.1038234 -0.63448,0 -0.98056,0.2461 -0.34223,0.2461 -0.34223,0.6998468 0,0.380686 0.22687,0.5767969 0.23072,0.1922656 0.86904,0.3114703 l 0.46913,0.096133 q 0.86904,0.1653484 1.28049,0.5844875 0.41529,0.4152937 0.41529,1.1151406 0,0.83443278 -0.56141,1.26510777 -0.55757,0.43067499 -1.63811,0.43067499 -0.4076,0 -0.86904,-0.0922875 -0.45759,-0.0922875 -0.94979,-0.27301718 l 0,-0.79982498 q 0.47298,0.26532656 0.92672,0.39991249 0.45375,0.13458594 0.89211,0.13458594 0.66524,0 1.0267,-0.26148125 0.36146,-0.26148128 0.36146,-0.74599058 0,-0.4229844 -0.26148,-0.6613938 -0.25763,-0.2384093 -0.84981,-0.357614 l -0.47298,-0.092287 q -0.86904,-0.1730391 -1.25741,-0.5421891 -0.38838,-0.3691499 -0.38838,-1.0266984 0,-0.7613718 0.5345,-1.1997374 0.53834,-0.4383656 1.48044,-0.4383656 0.40376,0 0.8229,0.073061 0.41914,0.073061 0.85751,0.2191828 z"
           id="path5246"
           inkscape:connector-curvature="0" />
        <path
           d="m 25.175661,-3.0631759 2.072624,0 0,0.6306313 -2.072624,0 0,-0.6306313 z"
           id="path5248"
           inkscape:connector-curvature="0" />
      </g>
    </g>
  </g>
</svg>
