<?xml version="1.0" encoding="UTF-8" standalone="no"?>
<!-- Created with Inkscape (http://www.inkscape.org/) -->

<svg
   xmlns:dc="http://purl.org/dc/elements/1.1/"
   xmlns:cc="http://creativecommons.org/ns#"
   xmlns:rdf="http://www.w3.org/1999/02/22-rdf-syntax-ns#"
   xmlns:svg="http://www.w3.org/2000/svg"
   xmlns="http://www.w3.org/2000/svg"
   xmlns:sodipodi="http://sodipodi.sourceforge.net/DTD/sodipodi-0.dtd"
   xmlns:inkscape="http://www.inkscape.org/namespaces/inkscape"
   width="277.59998"
   height="199.97113"
   id="svg3911"
   version="1.1"
   inkscape:version="0.48.3.1 r9886"
   sodipodi:docname="Nuevo documento 5">
  <defs
     id="defs3913">
    <clipPath
       clipPathUnits="userSpaceOnUse"
       id="clipPath286">
      <path
         inkscape:connector-curvature="0"
         d="m 176.84,321.29 222.9,0 0,-162.29 -222.9,0 0,162.29 z"
         id="path288" />
    </clipPath>
  </defs>
  <sodipodi:namedview
     id="base"
     pagecolor="#ffffff"
     bordercolor="#666666"
     borderopacity="1.0"
     inkscape:pageopacity="0.0"
     inkscape:pageshadow="2"
     inkscape:zoom="0.98994949"
     inkscape:cx="110.13207"
     inkscape:cy="101.61704"
     inkscape:document-units="px"
     inkscape:current-layer="layer1"
     showgrid="false"
     fit-margin-top="0"
     fit-margin-left="0"
     fit-margin-right="0"
     fit-margin-bottom="0"
     inkscape:window-width="607"
     inkscape:window-height="386"
     inkscape:window-x="0"
     inkscape:window-y="29"
     inkscape:window-maximized="0" />
  <metadata
     id="metadata3916">
    <rdf:RDF>
      <cc:Work
         rdf:about="">
        <dc:format>image/svg+xml</dc:format>
        <dc:type
           rdf:resource="http://purl.org/dc/dcmitype/StillImage" />
        <dc:title></dc:title>
      </cc:Work>
    </rdf:RDF>
  </metadata>
  <g
     inkscape:label="Capa 1"
     inkscape:groupmode="layer"
     id="layer1"
     transform="translate(-146.91429,-380.94805)">
    <text
       xml:space="preserve"
       style="font-size:12px;font-style:normal;font-variant:normal;font-weight:normal;font-stretch:normal;line-height:125%;letter-spacing:0px;word-spacing:0px;fill:#000000;fill-opacity:1;stroke:none;font-family:Nimbus Roman No9 L;-inkscape-font-specification:Nimbus Roman No9 L"
       x="157.58231"
       y="478.88736"
       id="text3809"
       sodipodi:linespacing="125%"><tspan
         sodipodi:role="line"
         id="tspan3811"
         x="157.58231"
         y="478.88736">1µm</tspan></text>
    <text
       xml:space="preserve"
       style="font-size:12px;font-style:normal;font-variant:normal;font-weight:normal;font-stretch:normal;line-height:125%;letter-spacing:0px;word-spacing:0px;fill:#000000;fill-opacity:1;stroke:none;font-family:Nimbus Roman No9 L;-inkscape-font-specification:Nimbus Roman No9 L"
       x="151.58229"
       y="434.53021"
       id="text3813"
       sodipodi:linespacing="125%"><tspan
         sodipodi:role="line"
         id="tspan3815"
         x="151.58229"
         y="434.53021">10µm</tspan></text>
    <text
       xml:space="preserve"
       style="font-size:12px;font-style:normal;font-variant:normal;font-weight:normal;font-stretch:normal;line-height:125%;letter-spacing:0px;word-spacing:0px;fill:#000000;fill-opacity:1;stroke:none;font-family:Nimbus Roman No9 L;-inkscape-font-specification:Nimbus Roman No9 L"
       x="145.58229"
       y="524.6084"
       id="text3805"
       sodipodi:linespacing="125%"><tspan
         sodipodi:role="line"
         id="tspan3807"
         x="145.58229"
         y="524.6084">100nm</tspan></text>
    <text
       transform="scale(1.0000056,0.9999944)"
       id="text274"
       x="170.26817"
       y="479.4097"
       style="font-size:14.99991608px">
      <tspan
         style="font-size:11.25043774px;font-variant:normal;font-weight:normal;writing-mode:lr-tb;fill:#000000;fill-opacity:1;fill-rule:nonzero;stroke:none;font-family:Times;-inkscape-font-specification:Times-Roman"
         x="170.26817"
         y="479.4097"
         id="tspan276" />
      <tspan
         style="font-size:11.25043774px;font-variant:normal;font-weight:normal;writing-mode:lr-tb;fill:#000000;fill-opacity:1;fill-rule:nonzero;stroke:none;font-family:Times;-inkscape-font-specification:Times-Roman"
         x="172.92328 178.54851 184.17372 189.79895 216.15872 221.78395 227.40915 233.03436 262.47678 268.10199 273.7272 279.35242 309.17734 314.80255 320.4278 326.05301"
         y="580.67493"
         sodipodi:role="line"
         id="tspan278">1970198019902000</tspan>
      <tspan
         style="font-size:11.25043774px;font-variant:normal;font-weight:normal;writing-mode:lr-tb;fill:#000000;fill-opacity:1;fill-rule:nonzero;stroke:none;font-family:Times;-inkscape-font-specification:Times-Roman"
         x="403.75977 410.75754 415.75272"
         y="580.50616"
         sodipodi:role="line"
         id="tspan280">Yea</tspan>
    </text>
    <g
       id="g282"
       transform="matrix(1.25,0,0,-1.25,-75.160719,780.61949)">
      <g
         id="g284"
         clip-path="url(#clipPath286)">
        <text
           transform="matrix(1,0,0,-0.99998889,396.73,160.09)"
           id="text290">
          <tspan
             style="font-size:9.00039959px;font-variant:normal;font-weight:normal;writing-mode:lr-tb;fill:#000000;fill-opacity:1;fill-rule:nonzero;stroke:none;font-family:Times;-inkscape-font-specification:Times-Roman"
             x="0"
             y="0"
             id="tspan292">r</tspan>
        </text>
      </g>
    </g>
    <text
       transform="scale(1.0000056,0.9999944)"
       id="text294"
       x="159.47589"
       y="388.29672"
       style="font-size:14.99991608px">
      <tspan
         style="font-size:11.25043774px;font-style:italic;font-variant:normal;writing-mode:lr-tb;fill:#000000;fill-opacity:1;fill-rule:nonzero;stroke:none;font-family:Times;-inkscape-font-specification:Times-Italic"
         x="159.47589"
         y="388.29672"
         id="tspan296">L</tspan>
    </text>
    <text
       style="font-size:15px"
       id="text298"
       x="165.72679"
       y="390.79443">
      <tspan
         style="font-size:8.75037479px;font-variant:normal;font-weight:normal;writing-mode:lr-tb;fill:#000000;fill-opacity:1;fill-rule:nonzero;stroke:none;font-family:Times;-inkscape-font-specification:Times-Roman"
         x="165.72679 172.53458 174.96716"
         y="390.79443"
         sodipodi:role="line"
         id="tspan300">min</tspan>
    </text>
    <text
       transform="scale(1.0000056,0.9999944)"
       id="text302"
       x="150.47395"
       y="568.27271"
       style="font-size:14.99991608px">
      <tspan
         style="font-size:11.25043774px;font-variant:normal;font-weight:normal;writing-mode:lr-tb;fill:#000000;fill-opacity:1;fill-rule:nonzero;stroke:none;font-family:Times;-inkscape-font-specification:Times-Roman"
         x="150.47395 156.09917 161.7244 164.53699 170.16222"
         y="568.27271"
         sodipodi:role="line"
         id="tspan304">10 nm</tspan>
    </text>
    <g
       id="g306"
       transform="matrix(1.25,0,0,-1.25,183.82678,389.1445)">
      <path
         d="m 0,0 -1.803,-1.094 -0.039,0.061 1.166,2.938 C -0.451,2.928 -0.227,3.952 0,4.975 0.225,3.952 0.449,2.928 0.676,1.905 L 1.842,-1.033 1.811,-1.094 0,0"
         style="fill:#000000;fill-opacity:1;fill-rule:nonzero;stroke:none"
         id="path308"
         inkscape:connector-curvature="0" />
    </g>
    <g
       id="g310"
       transform="matrix(1.25,0,0,-1.25,183.82678,389.3945)">
      <path
         d="M 0,0 0,-142.26"
         style="fill:none;stroke:#000000;stroke-width:0.5;stroke-linecap:round;stroke-linejoin:miter;stroke-miterlimit:10;stroke-opacity:1;stroke-dasharray:none"
         id="path312"
         inkscape:connector-curvature="0" />
    </g>
    <g
       id="g332"
       transform="matrix(1.25,0,0,-1.25,413.61428,567.23199)">
      <path
         d="m 0,0 -1.093,1.803 0.06,0.039 2.938,-1.166 C 2.928,0.451 3.952,0.226 4.975,0 3.952,-0.225 2.928,-0.449 1.905,-0.676 L -1.033,-1.842 -1.093,-1.811 0,0"
         style="fill:#000000;fill-opacity:1;fill-rule:nonzero;stroke:none"
         id="path334"
         inkscape:connector-curvature="0" />
    </g>
    <g
       id="g336"
       transform="matrix(1.25,0,0,-1.25,413.36428,567.23199)">
      <path
         d="M 0,0 -183.21,0"
         style="fill:none;stroke:#000000;stroke-width:0.5;stroke-linecap:round;stroke-linejoin:miter;stroke-miterlimit:10;stroke-opacity:1;stroke-dasharray:none"
         id="path338"
         inkscape:connector-curvature="0" />
    </g>
    <g
       id="g356"
       transform="matrix(1.25,0,0,-1.25,375.65178,538.79449)">
      <path
         d="M 0,0 -153.15,89.892"
         style="fill:none;stroke:#00adef;stroke-width:1;stroke-linecap:butt;stroke-linejoin:miter;stroke-miterlimit:4;stroke-opacity:1;stroke-dasharray:none"
         id="path358"
         inkscape:connector-curvature="0" />
    </g>
    <g
       id="g360"
       transform="matrix(1.25,0,0,-1.25,273.12678,480.3695)">
      <path
         d="M 0,0 C 1.096,0 1.988,0.89 1.988,1.988 1.988,3.087 1.096,3.976 0,3.976 -1.099,3.976 -1.991,3.087 -1.991,1.988 -1.991,0.89 -1.099,0 0,0"
         style="fill:#000000;fill-opacity:1;fill-rule:nonzero;stroke:none"
         id="path362"
         inkscape:connector-curvature="0" />
    </g>
    <g
       id="g364"
       transform="matrix(1.25,0,0,-1.25,273.12678,480.3695)">
      <path
         d="M 0,0 C 1.096,0 1.988,0.89 1.988,1.988 1.988,3.087 1.096,3.976 0,3.976 -1.099,3.976 -1.991,3.087 -1.991,1.988 -1.991,0.89 -1.099,0 0,0 z"
         style="fill:none;stroke:#000000;stroke-width:0.5;stroke-linecap:butt;stroke-linejoin:miter;stroke-miterlimit:10;stroke-opacity:1;stroke-dasharray:none"
         id="path366"
         inkscape:connector-curvature="0" />
    </g>
    <text
       transform="scale(1.0000056,0.9999944)"
       id="text368"
       x="354.08734"
       y="580.6853"
       style="font-size:14.99991608px">
      <tspan
         style="font-size:11.25043774px;font-variant:normal;font-weight:normal;writing-mode:lr-tb;fill:#000000;fill-opacity:1;fill-rule:nonzero;stroke:none;font-family:Times;-inkscape-font-specification:Times-Roman"
         x="354.08734 359.71252 365.33777 370.96298"
         y="580.6853"
         sodipodi:role="line"
         id="tspan370">2010</tspan>
    </text>
    <g
       id="g372"
       transform="matrix(1.25,0,0,-1.25,342.06428,519.81949)">
      <path
         d="M 0,0 C 1.098,0 1.988,0.89 1.988,1.988 1.988,3.085 1.098,3.976 0,3.976 -1.098,3.976 -1.99,3.085 -1.99,1.988 -1.99,0.89 -1.098,0 0,0"
         style="fill:#000000;fill-opacity:1;fill-rule:nonzero;stroke:none"
         id="path374"
         inkscape:connector-curvature="0" />
    </g>
    <g
       id="g376"
       transform="matrix(1.25,0,0,-1.25,342.06428,519.81949)">
      <path
         d="M 0,0 C 1.098,0 1.988,0.89 1.988,1.988 1.988,3.085 1.098,3.976 0,3.976 -1.098,3.976 -1.99,3.085 -1.99,1.988 -1.99,0.89 -1.098,0 0,0 z"
         style="fill:none;stroke:#000000;stroke-width:0.5;stroke-linecap:butt;stroke-linejoin:miter;stroke-miterlimit:10;stroke-opacity:1;stroke-dasharray:none"
         id="path378"
         inkscape:connector-curvature="0" />
    </g>
    <g
       id="g380"
       transform="matrix(1.25,0,0,-1.25,329.82678,512.98199)">
      <path
         d="M 0,0 C 1.098,0 1.988,0.891 1.988,1.989 1.988,3.088 1.098,3.977 0,3.977 -1.098,3.977 -1.99,3.088 -1.99,1.989 -1.99,0.891 -1.098,0 0,0"
         style="fill:#000000;fill-opacity:1;fill-rule:nonzero;stroke:none"
         id="path382"
         inkscape:connector-curvature="0" />
    </g>
    <g
       id="g384"
       transform="matrix(1.25,0,0,-1.25,329.82678,512.98199)">
      <path
         d="M 0,0 C 1.098,0 1.988,0.891 1.988,1.989 1.988,3.088 1.098,3.977 0,3.977 -1.098,3.977 -1.99,3.088 -1.99,1.989 -1.99,0.891 -1.098,0 0,0 z"
         style="fill:none;stroke:#000000;stroke-width:0.5;stroke-linecap:butt;stroke-linejoin:miter;stroke-miterlimit:10;stroke-opacity:1;stroke-dasharray:none"
         id="path386"
         inkscape:connector-curvature="0" />
    </g>
    <g
       id="g388"
       transform="matrix(1.25,0,0,-1.25,318.90178,507.61949)">
      <path
         d="M 0,0 C 1.098,0 1.989,0.891 1.989,1.989 1.989,3.088 1.098,3.977 0,3.977 -1.098,3.977 -1.991,3.088 -1.991,1.989 -1.991,0.891 -1.098,0 0,0"
         style="fill:#000000;fill-opacity:1;fill-rule:nonzero;stroke:none"
         id="path390"
         inkscape:connector-curvature="0" />
    </g>
    <g
       id="g392"
       transform="matrix(1.25,0,0,-1.25,318.90178,507.61949)">
      <path
         d="M 0,0 C 1.098,0 1.989,0.891 1.989,1.989 1.989,3.088 1.098,3.977 0,3.977 -1.098,3.977 -1.991,3.088 -1.991,1.989 -1.991,0.891 -1.098,0 0,0 z"
         style="fill:none;stroke:#000000;stroke-width:0.5;stroke-linecap:butt;stroke-linejoin:miter;stroke-miterlimit:10;stroke-opacity:1;stroke-dasharray:none"
         id="path394"
         inkscape:connector-curvature="0" />
    </g>
    <g
       id="g396"
       transform="matrix(1.25,0,0,-1.25,200.11428,434.5945)">
      <path
         d="M 0,0 C 1.097,0 1.989,0.891 1.989,1.988 1.989,3.087 1.097,3.977 0,3.977 -1.098,3.977 -1.99,3.087 -1.99,1.988 -1.99,0.891 -1.098,0 0,0"
         style="fill:#000000;fill-opacity:1;fill-rule:nonzero;stroke:none"
         id="path398"
         inkscape:connector-curvature="0" />
    </g>
    <g
       id="g400"
       transform="matrix(1.25,0,0,-1.25,200.11428,434.5945)">
      <path
         d="M 0,0 C 1.097,0 1.989,0.891 1.989,1.988 1.989,3.087 1.097,3.977 0,3.977 -1.098,3.977 -1.99,3.087 -1.99,1.988 -1.99,0.891 -1.098,0 0,0 z"
         style="fill:none;stroke:#000000;stroke-width:0.5;stroke-linecap:butt;stroke-linejoin:miter;stroke-miterlimit:10;stroke-opacity:1;stroke-dasharray:none"
         id="path402"
         inkscape:connector-curvature="0" />
    </g>
    <g
       id="g404"
       transform="matrix(1.25,0,0,-1.25,296.20178,496.64449)">
      <path
         d="M 0,0 C 1.098,0 1.989,0.89 1.989,1.988 1.989,3.087 1.098,3.977 0,3.977 -1.097,3.977 -1.99,3.087 -1.99,1.988 -1.99,0.89 -1.097,0 0,0"
         style="fill:#000000;fill-opacity:1;fill-rule:nonzero;stroke:none"
         id="path406"
         inkscape:connector-curvature="0" />
    </g>
    <g
       id="g408"
       transform="matrix(1.25,0,0,-1.25,296.20178,496.64449)">
      <path
         d="M 0,0 C 1.098,0 1.989,0.89 1.989,1.988 1.989,3.087 1.098,3.977 0,3.977 -1.097,3.977 -1.99,3.087 -1.99,1.988 -1.99,0.89 -1.097,0 0,0 z"
         style="fill:none;stroke:#000000;stroke-width:0.5;stroke-linecap:butt;stroke-linejoin:miter;stroke-miterlimit:10;stroke-opacity:1;stroke-dasharray:none"
         id="path410"
         inkscape:connector-curvature="0" />
    </g>
    <g
       id="g412"
       transform="matrix(1.25,0,0,-1.25,284.47678,485.66949)">
      <path
         d="M 0,0 C 1.097,0 1.988,0.891 1.988,1.988 1.988,3.087 1.097,3.977 0,3.977 -1.098,3.977 -1.991,3.087 -1.991,1.988 -1.991,0.891 -1.098,0 0,0"
         style="fill:#000000;fill-opacity:1;fill-rule:nonzero;stroke:none"
         id="path414"
         inkscape:connector-curvature="0" />
    </g>
    <g
       id="g416"
       transform="matrix(1.25,0,0,-1.25,284.47678,485.66949)">
      <path
         d="M 0,0 C 1.097,0 1.988,0.891 1.988,1.988 1.988,3.087 1.097,3.977 0,3.977 -1.098,3.977 -1.991,3.087 -1.991,1.988 -1.991,0.891 -1.098,0 0,0 z"
         style="fill:none;stroke:#000000;stroke-width:0.5;stroke-linecap:butt;stroke-linejoin:miter;stroke-miterlimit:10;stroke-opacity:1;stroke-dasharray:none"
         id="path418"
         inkscape:connector-curvature="0" />
    </g>
    <g
       id="g420"
       transform="matrix(1.25,0,0,-1.25,247.18928,462.9195)">
      <path
         d="M 0,0 C 1.098,0 1.989,0.891 1.989,1.988 1.989,3.087 1.098,3.977 0,3.977 -1.098,3.977 -1.99,3.087 -1.99,1.988 -1.99,0.891 -1.098,0 0,0"
         style="fill:#000000;fill-opacity:1;fill-rule:nonzero;stroke:none"
         id="path422"
         inkscape:connector-curvature="0" />
    </g>
    <g
       id="g424"
       transform="matrix(1.25,0,0,-1.25,247.18928,462.9195)">
      <path
         d="M 0,0 C 1.098,0 1.989,0.891 1.989,1.988 1.989,3.087 1.098,3.977 0,3.977 -1.098,3.977 -1.99,3.087 -1.99,1.988 -1.99,0.891 -1.098,0 0,0 z"
         style="fill:none;stroke:#000000;stroke-width:0.5;stroke-linecap:butt;stroke-linejoin:miter;stroke-miterlimit:10;stroke-opacity:1;stroke-dasharray:none"
         id="path426"
         inkscape:connector-curvature="0" />
    </g>
    <g
       id="g428"
       transform="matrix(1.25,0,0,-1.25,215.98928,451.5445)">
      <path
         d="M 0,0 C 1.097,0 1.988,0.891 1.988,1.989 1.988,3.087 1.097,3.977 0,3.977 -1.098,3.977 -1.991,3.087 -1.991,1.989 -1.991,0.891 -1.098,0 0,0"
         style="fill:#000000;fill-opacity:1;fill-rule:nonzero;stroke:none"
         id="path430"
         inkscape:connector-curvature="0" />
    </g>
    <g
       id="g432"
       transform="matrix(1.25,0,0,-1.25,215.98928,451.5445)">
      <path
         d="M 0,0 C 1.097,0 1.988,0.891 1.988,1.989 1.988,3.087 1.097,3.977 0,3.977 -1.098,3.977 -1.991,3.087 -1.991,1.989 -1.991,0.891 -1.098,0 0,0 z"
         style="fill:none;stroke:#000000;stroke-width:0.5;stroke-linecap:butt;stroke-linejoin:miter;stroke-miterlimit:10;stroke-opacity:1;stroke-dasharray:none"
         id="path434"
         inkscape:connector-curvature="0" />
    </g>
    <g
       id="g436"
       transform="matrix(1.25,0,0,-1.25,352.57678,526.53199)">
      <path
         d="M 0,0 C 1.098,0 1.988,0.891 1.988,1.989 1.988,3.088 1.098,3.977 0,3.977 -1.097,3.977 -1.99,3.088 -1.99,1.989 -1.99,0.891 -1.097,0 0,0"
         style="fill:#000000;fill-opacity:1;fill-rule:nonzero;stroke:none"
         id="path438"
         inkscape:connector-curvature="0" />
    </g>
    <g
       id="g440"
       transform="matrix(1.25,0,0,-1.25,352.57678,526.53199)">
      <path
         d="M 0,0 C 1.098,0 1.988,0.891 1.988,1.989 1.988,3.088 1.098,3.977 0,3.977 -1.097,3.977 -1.99,3.088 -1.99,1.989 -1.99,0.891 -1.097,0 0,0 z"
         style="fill:none;stroke:#000000;stroke-width:0.5;stroke-linecap:butt;stroke-linejoin:miter;stroke-miterlimit:10;stroke-opacity:1;stroke-dasharray:none"
         id="path442"
         inkscape:connector-curvature="0" />
    </g>
    <g
       id="g444"
       transform="matrix(1.25,0,0,-1.25,360.13928,530.69449)">
      <path
         d="M 0,0 C 1.098,0 1.988,0.891 1.988,1.989 1.988,3.086 1.098,3.977 0,3.977 -1.098,3.977 -1.99,3.086 -1.99,1.989 -1.99,0.891 -1.098,0 0,0"
         style="fill:#000000;fill-opacity:1;fill-rule:nonzero;stroke:none"
         id="path446"
         inkscape:connector-curvature="0" />
    </g>
    <g
       id="g448"
       transform="matrix(1.25,0,0,-1.25,360.13928,530.69449)">
      <path
         d="M 0,0 C 1.098,0 1.988,0.891 1.988,1.989 1.988,3.086 1.098,3.977 0,3.977 -1.098,3.977 -1.99,3.086 -1.99,1.989 -1.99,0.891 -1.098,0 0,0 z"
         style="fill:none;stroke:#000000;stroke-width:0.5;stroke-linecap:butt;stroke-linejoin:miter;stroke-miterlimit:10;stroke-opacity:1;stroke-dasharray:none"
         id="path450"
         inkscape:connector-curvature="0" />
    </g>
    <g
       id="g452"
       transform="matrix(1.25,0,0,-1.25,360.13928,540.14449)">
      <path
         d="M 0,0 C 1.098,0 1.988,0.891 1.988,1.988 1.988,3.086 1.098,3.976 0,3.976 -1.098,3.976 -1.99,3.086 -1.99,1.988 -1.99,0.891 -1.098,0 0,0"
         style="fill:#000000;fill-opacity:1;fill-rule:nonzero;stroke:none"
         id="path454"
         inkscape:connector-curvature="0" />
    </g>
    <g
       id="g456"
       transform="matrix(1.25,0,0,-1.25,360.13928,540.14449)">
      <path
         d="M 0,0 C 1.098,0 1.988,0.891 1.988,1.988 1.988,3.086 1.098,3.976 0,3.976 -1.098,3.976 -1.99,3.086 -1.99,1.988 -1.99,0.891 -1.098,0 0,0 z"
         style="fill:none;stroke:#000000;stroke-width:0.5;stroke-linecap:butt;stroke-linejoin:miter;stroke-miterlimit:10;stroke-opacity:1;stroke-dasharray:none"
         id="path458"
         inkscape:connector-curvature="0" />
    </g>
  </g>
</svg>
