<?xml version="1.0" encoding="UTF-8" standalone="no"?>
<!-- Created with Inkscape (http://www.inkscape.org/) -->

<svg
   xmlns:ns0="http://www.iki.fi/pav/software/textext/"
   xmlns:dc="http://purl.org/dc/elements/1.1/"
   xmlns:cc="http://creativecommons.org/ns#"
   xmlns:rdf="http://www.w3.org/1999/02/22-rdf-syntax-ns#"
   xmlns:svg="http://www.w3.org/2000/svg"
   xmlns="http://www.w3.org/2000/svg"
   xmlns:xlink="http://www.w3.org/1999/xlink"
   xmlns:sodipodi="http://sodipodi.sourceforge.net/DTD/sodipodi-0.dtd"
   xmlns:inkscape="http://www.inkscape.org/namespaces/inkscape"
   width="312.22638"
   height="207.34801"
   id="svg4261"
   version="1.1"
   inkscape:version="0.48.3.1 r9886"
   sodipodi:docname="fuente.svg">
  <sodipodi:namedview
     id="base"
     pagecolor="#ffffff"
     bordercolor="#666666"
     borderopacity="1.0"
     inkscape:pageopacity="0.0"
     inkscape:pageshadow="2"
     inkscape:zoom="3.959798"
     inkscape:cx="126.66715"
     inkscape:cy="70.225548"
     inkscape:document-units="px"
     inkscape:current-layer="layer1"
     showgrid="false"
     fit-margin-top="0"
     fit-margin-left="0"
     fit-margin-right="0"
     fit-margin-bottom="0"
     inkscape:window-width="1366"
     inkscape:window-height="744"
     inkscape:window-x="0"
     inkscape:window-y="24"
     inkscape:window-maximized="1" />
  <defs
     id="defs4263" />
  <metadata
     id="metadata4266">
    <rdf:RDF>
      <cc:Work
         rdf:about="">
        <dc:format>image/svg+xml</dc:format>
        <dc:type
           rdf:resource="http://purl.org/dc/dcmitype/StillImage" />
        <dc:title />
      </cc:Work>
    </rdf:RDF>
  </metadata>
  <g
     transform="translate(-193.88683,-428.68819)"
     id="layer1"
     inkscape:groupmode="layer"
     inkscape:label="Capa 1">
    <path
       d="m 257.87983,537.19069 3.475,3.47625 3.865,-7.7275 -7.34,4.25125 z"
       style="fill:#221e1f;fill-opacity:1;fill-rule:nonzero;stroke:#221e1f;stroke-width:0.625;stroke-linecap:butt;stroke-linejoin:miter;stroke-miterlimit:3.86400008;stroke-opacity:1;stroke-dasharray:none"
       id="path294"
       inkscape:connector-curvature="0" />
    <path
       d="m 403.94109,532.93944 7.7275,4.63625 -3.86375,3.09125 -3.86375,-7.7275 z"
       style="fill:#221e1f;fill-opacity:1;fill-rule:nonzero;stroke:#221e1f;stroke-width:0.625;stroke-linecap:butt;stroke-linejoin:miter;stroke-miterlimit:3.86400008;stroke-opacity:1;stroke-dasharray:none"
       id="path296"
       inkscape:connector-curvature="0" />
    <path
       d="m 413.21484,585.87444 4.25,-1.545 0,9.2725 -4.25,-7.7275 z"
       style="fill:#221e1f;fill-opacity:1;fill-rule:nonzero;stroke:#221e1f;stroke-width:0.625;stroke-linecap:butt;stroke-linejoin:miter;stroke-miterlimit:3.86400008;stroke-opacity:1;stroke-dasharray:none"
       id="path298"
       inkscape:connector-curvature="0" />
    <path
       d="m 251.69608,584.32944 0,9.2725 4.25125,-7.7275 -4.25125,-1.545 z"
       style="fill:#221e1f;fill-opacity:1;fill-rule:nonzero;stroke:#221e1f;stroke-width:0.625;stroke-linecap:butt;stroke-linejoin:miter;stroke-miterlimit:3.86400008;stroke-opacity:1;stroke-dasharray:none"
       id="path300"
       inkscape:connector-curvature="0" />
    <path
       d="m 415.80234,587.13194 64.41,0 m -71.635,-49.5225 71.635,0"
       style="fill:none;stroke:#221e1f;stroke-width:0.625;stroke-linecap:butt;stroke-linejoin:miter;stroke-miterlimit:3.86400008;stroke-opacity:1;stroke-dasharray:none"
       id="path302"
       inkscape:connector-curvature="0" />
    <text
       id="text304"
       x="482.63373"
       y="590.22754"
       style="font-size:15px">
      <tspan
         style="font-size:10px;font-variant:normal;font-weight:normal;writing-mode:lr-tb;fill:#221e1f;fill-opacity:1;fill-rule:nonzero;stroke:none;font-family:Frutiger;-inkscape-font-specification:Frutiger-Roman"
         x="482.63373 492.33374 497.89374 500.67374"
         y="590.22754"
         sodipodi:role="line"
         id="tspan306">Weld</tspan>
      <tspan
         style="font-size:10px;font-variant:normal;font-weight:normal;writing-mode:lr-tb;fill:#221e1f;fill-opacity:1;fill-rule:nonzero;stroke:none;font-family:Frutiger;-inkscape-font-specification:Frutiger-Roman"
         x="326.3457 331.90573 337.46573 340.24573"
         y="635.89459"
         sodipodi:role="line"
         id="tspan308">22.0</tspan>
    </text>
    <path
       d="m 214.92858,631.59694 107.30626,0 m 28.34625,0 103.59375,0 m -239.24626,3.915 0,-7.82875 m 239.24626,7.82875 0,-7.82875"
       style="fill:none;stroke:#313134;stroke-width:0.54000002;stroke-linecap:butt;stroke-linejoin:miter;stroke-miterlimit:3.86400008;stroke-opacity:1;stroke-dasharray:none"
       id="path310"
       inkscape:connector-curvature="0" />
    <text
       id="text312"
       x="483.13361"
       y="493.86395"
       style="font-size:15px">
      <tspan
         style="font-size:9.75px;font-variant:normal;font-weight:normal;writing-mode:lr-tb;fill:#221e1f;fill-opacity:1;fill-rule:nonzero;stroke:none;font-family:Frutiger;-inkscape-font-specification:Frutiger-Roman"
         x="483.13361 491.8501"
         y="493.86395"
         sodipodi:role="line"
         id="tspan314">M3</tspan>
    </text>
    <text
       id="text316"
       x="193.18858"
       y="543.99945"
       style="font-size:15px">
      <tspan
         style="font-size:10px;font-variant:normal;font-weight:normal;writing-mode:lr-tb;fill:#221e1f;fill-opacity:1;fill-rule:nonzero;stroke:none;font-family:Frutiger;-inkscape-font-specification:Frutiger-Roman"
         x="193.18858 198.74858 201.52858"
         y="543.99945"
         sodipodi:role="line"
         id="tspan318">6.0</tspan>
      <tspan
         style="font-size:10px;font-variant:normal;font-weight:normal;writing-mode:lr-tb;fill:#221e1f;fill-opacity:1;fill-rule:nonzero;stroke:none;font-family:Frutiger;-inkscape-font-specification:Frutiger-Roman"
         x="326.32059 331.88058 337.44058 340.22058"
         y="621.11444"
         sodipodi:role="line"
         id="tspan320">15.0</tspan>
    </text>
    <path
       d="m 277.82233,616.81819 44.65251,0 m 27.38,0 42.7475,0 m -114.78001,3.91375 0,-7.82875 m 114.78001,7.82875 0,-7.82875"
       style="fill:none;stroke:#313134;stroke-width:0.54000002;stroke-linecap:butt;stroke-linejoin:miter;stroke-miterlimit:3.86400008;stroke-opacity:1;stroke-dasharray:none"
       id="path322"
       inkscape:connector-curvature="0" />
    <path
       d="m 199.55733,593.58944 0,-46.0575 m 0,-15.27375 0,-45.20625 m 5.06125,0 -9.8425,0 m 9.79875,106.5375 -9.8425,0"
       style="fill:none;stroke:#313134;stroke-width:0.625;stroke-linecap:butt;stroke-linejoin:miter;stroke-miterlimit:3.86400008;stroke-opacity:1;stroke-dasharray:none"
       id="path396"
       inkscape:connector-curvature="0" />
    <path
       d="m 345.97984,491.09569 134.2325,0 m -91.72875,31.025 8.88875,-6.1825 6.955,-7.3425 4.6375,-7.7275 1.545,-8.11375 -0.77375,-8.5 -3.4775,-7.72875 -6.1825,-7.7275 -8.50125,-6.56875 -10.4325,-5.795 -11.97875,-4.25125 -13.13625,-3.09125 -14.29875,-1.545 -14.2975,0 -13.91,1.545 -13.525,3.09125 -11.97751,4.25125 -10.43375,5.795 -8.5,6.56875 -6.18375,7.7275 -3.47625,7.72875 -0.77375,8.5 1.545,8.11375 4.6375,7.7275 6.95625,7.3425 8.88625,6.1825 m 123.26501,10.81875 10.43125,-7.34125 8.5025,-8.11375 5.795,-8.88875 3.09125,-9.2725 0.38625,-9.66 -2.3175,-9.2725 -4.63625,-8.88875 -7.72875,-8.49875 -10.04625,-7.7275 -11.97875,-6.56875 -13.525,-5.02375 -15.06875,-3.86375 -15.8425,-2.31875 -16.23,-1.16 -16.615,1.16 -15.8425,2.31875 -15.07126,3.86375 -13.5225,5.02375 -11.98,6.56875 -10.04625,7.7275 -7.34125,8.49875 -5.02375,8.88875 -2.32,9.2725 0.3875,9.66 3.09125,9.2725 5.7975,8.88875 8.49875,8.11375 10.43375,7.34125 m -6.56875,-35.54875 0.77375,6.95625 2.70375,6.56875 4.6375,6.56875 6.1825,5.795 7.7275,5.41 m 151.85876,-33.61625 -1.9325,-8.8875 -4.63625,-8.88625 -6.57,-8.115 -8.88625,-7.34125 -10.82,-6.5675 -12.75125,-5.41 -13.91125,-4.25 -15.07,-3.0925 -15.455,-1.545 -15.8425,0 -15.4575,1.545 -15.06875,3.0925 -13.91251,4.25 -12.75125,5.41 -10.81875,6.5675 -8.88625,7.34125 -6.56875,8.115 -4.63875,8.88625 -1.93125,8.8875 m 22.025,-3.86375 0,6.18125 m 152.24376,-6.18125 0,6.18125 m -85.78125,-0.77125 -27.0475,15.84125 m 45.98125,-15.84125 44.43625,25.50125 m -90.4175,-9.66 -1.9325,-0.77375 -1.9325,-0.77125 -1.93251,-0.3875 -4.25,0 -1.9325,0.3875 -1.9325,0.77125 -3.09125,1.5475 -0.77125,1.15875 -0.77375,1.15875 -0.3875,1.15875 0.3875,1.545 0.77375,1.16 0.77125,0.7725 1.54625,1.15875 m 85.00876,-56.02625 0.77375,2.31875 1.15875,1.15875 1.15875,0.77375 1.54625,0.77125 1.9325,0.77375 1.9325,0.385 3.86375,0 1.93125,-0.385 1.9325,-0.38625 1.93125,-0.77375 1.16,-0.7725 1.16,-1.1575 0.7725,-0.77375 0.38625,-1.15875 0,-1.54625 -0.38625,-1.16 -0.7725,-0.7725 -1.16,-1.1575 -1.16,-0.77375 -1.93125,-0.7725 -1.9325,-0.38625 -1.93125,-0.3875 -3.86375,0 -1.9325,0.3875 -1.9325,0.77125 -1.54625,0.77375 -1.15875,0.7725 -1.15875,1.16 -0.77375,2.3175 z"
       style="fill:none;stroke:#221e1f;stroke-width:0.625;stroke-linecap:butt;stroke-linejoin:miter;stroke-miterlimit:3.86400008;stroke-opacity:1;stroke-dasharray:none"
       id="path398"
       inkscape:connector-curvature="0" />
    <path
       d="m 348.29734,491.59569 -2.3175,-3.09125 -1.9325,-1.15875 -1.9325,-1.16 -2.3175,-0.7725 -2.31875,-0.38625 -2.705,-0.3875 -5.0225,0 -1.9325,0.77375 -1.9325,0.7725 -1.9325,0.77375 -1.15875,1.15875 -0.7725,1.545 -0.38625,1.54625 0.38625,1.1575 0.385,1.5475 1.16125,1.54625 1.545,1.15875 m 9.66,-13.1375 0,45.59375 m 76.895,8.5 10.81875,-7.34125 8.88875,-8.50125 6.56875,-8.885 4.25,-9.66 1.15875,-10.0475 -1.15875,-9.65875 -4.25,-9.66 -6.56875,-8.88625 -8.88875,-8.50125 -10.81875,-7.7275 -13.1375,-6.18375 -14.68375,-5.0225 -15.45625,-3.86375 -16.61625,-2.31875 -17.00125,-0.7725 -17.0025,0.7725 -16.61375,2.31875 -15.84501,3.86375 -14.6825,5.0225 -12.7525,6.18375 -11.205,7.7275 -8.8875,8.50125 -6.56875,8.88625 -3.865,9.66 -1.545,9.65875 1.545,10.0475 3.865,9.66 6.56875,8.885 8.8875,8.50125 11.205,7.34125 m -32.07125,-42.115 0.77375,8.49875 2.3175,8.50125 4.6375,8.11375 6.1825,7.7275 8.115,7.3425 10.045,6.56875 m 161.13251,4.25 11.97875,-7.7275 9.66125,-8.8875 6.955,-9.66 4.6375,-10.43125 1.9325,-10.43375 -0.77375,-10.4325 -3.865,-10.04625 -6.1825,-10.04625 -8.88625,-9.2725 -11.20625,-8.115 -13.1375,-7.3425 -14.68375,-5.795 -16.61625,-4.63625 -17.00125,-3.09125 -18.16125,-1.545 -18.1625,0 -17.7725,1.545 -17.39001,3.09125 -16.61375,4.63625 -14.685,5.795 -13.1375,7.3425 -11.20625,8.115 -8.8875,9.2725 -6.1825,10.04625 -3.8625,10.04625 -0.77375,10.4325 1.9325,10.43375 4.63625,10.43125 6.95625,9.66 9.66,8.8875 11.9775,7.7275 m -35.1625,-15.07 1.15875,8.88875 2.70625,8.88625 5.4075,8.5 6.57,8.115 8.8875,7.7275 10.4325,6.56875 m -35.1625,-82.30125 0,33.615 m 239.18751,-33.615 0,33.615 m -196.29751,5.7975 0,5.0225 -7.7275,4.25 0,33.61625 m 161.51876,-42.50375 0,4.6375 7.34125,4.25 0,33.61625 m -7.34125,-37.86625 9.66,-6.56875 8.115,-7.3425 6.1825,-7.7275 4.63625,-8.11375 2.70625,-8.50125 0.385,-8.49875 m -24.34375,84.61875 10.43375,-6.56875 8.88625,-7.7275 6.95625,-8.115 5.02375,-8.5 2.70375,-8.88625 1.16125,-8.88875 m -192.82001,9.27375 0,32.45625 m 146.45001,-32.45625 0,18.5475 m 9.66,25.115 11.205,-7.34125 9.275,-8.11375 6.95375,-8.88875 4.6375,-9.2725"
       style="fill:none;stroke:#221e1f;stroke-width:0.625;stroke-linecap:butt;stroke-linejoin:miter;stroke-miterlimit:3.86400008;stroke-opacity:1;stroke-dasharray:none"
       id="path400"
       inkscape:connector-curvature="0" />
    <path
       d="m 255.94733,582.01194 0,-5.02375 m 157.65376,5.02375 0,-5.02375 m -157.65376,5.02375 -4.25125,2.3175 0,4.25125 m 161.90501,-6.56875 3.86375,2.3175 0,4.25125 m -161.51751,-11.5925 -5.7975,3.09125 m 163.45126,-3.09125 5.40875,3.09125 m -163.06251,5.795 29.365,-16.61375 m 98.53501,0 29.3675,16.61375 m -193.59126,-35.16125 4.63625,9.2725 7.3425,8.88875 8.8875,8.11375 11.20625,7.34125 m 20.865,-13.1375 4.2525,-2.3175 0,5.0225 m 115.53501,-5.0225 0,5.0225 m 25.11625,19.705 10.4325,-6.56875 8.8875,-7.7275 6.56875,-8.11375 5.02375,-8.5 2.70375,-8.8875 0.77375,-9.27375 m -200.15876,44.05 0,5.02125 m 165.76876,-5.02125 0,5.02125 m -165.76876,0 20.865,-11.9775 m 8.115,-59.50375 0,6.56875 m 107.80751,-6.56875 0,6.56875 7.72875,-5.41 6.18375,-5.795 4.63625,-6.56875 2.70375,-6.56875 1.15875,-6.95625 m -130.21876,31.29875 -15.06875,8.50125 m 122.87626,-8.50125 15.4575,8.50125 m -142.58626,3.47625 0,13.91125 m 3.865,-21.63875 0.3875,4.25125 m 142.19751,3.47625 0,32.45625 m -3.86375,-40.18375 0,4.25125 m -69.94,-20.09375 -68.00876,39.02625 m 68.00876,-39.02625 69.16625,39.79875 m -141.81251,-1.93125 4.6375,1.15875 m 141.81251,-1.545 -4.6375,2.3175 m -185.86126,-12.365 0.7725,9.27375 2.705,8.8875 5.0225,8.5 6.56875,8.11375 8.88875,7.7275 10.4325,6.56875 m 83.07751,-71.48125 -71.09876,40.9575 m 71.09876,-40.9575 70.7125,40.9575 2.31875,-1.545 m -146.45001,4.635 0.3875,0 m -0.3875,3.865 0.3875,0.38625 m 9.27375,-2.70625 -9.66125,5.41 m 136.78876,-5.41 9.66125,5.41 m -144.13001,-10.045 -1.9325,3.09 0,4.25125 2.31875,1.15875 m 141.42501,-8.5 1.9325,3.09 0,4.25125 m 0,-4.25125 0.38625,0 m -0.38625,4.25125 0.38625,-0.38625 m -146.45001,-8.5 2.32,1.545 m 141.42501,8.5 2.31875,-1.15875 m -139.88126,-0.38625 3.47875,1.93125 m 9.275,-5.0225 -9.275,5.0225 m 117.85501,-5.0225 9.2725,5.41 m -127.12751,-4.63875 0,4.25125 m 63.37126,-42.88875 -13.525,7.34125 -13.91,8.8875 -13.52501,10.045 -13.13625,11.5925 m 108.58001,0 -13.52375,-11.5925 -13.525,-10.045 -13.525,-8.8875 -13.91,-7.34125 m 63.75625,43.27625 3.47875,-2.31875 m -3.47875,2.31875 0,-4.63875 m -100.0775,-42.88875 -1.5475,-0.77125 -1.54625,-0.77375 -1.93001,-0.385 -5.7975,0 -1.545,0.385 -1.9325,0.77375 -1.15875,0.77125"
       style="fill:none;stroke:#221e1f;stroke-width:0.625;stroke-linecap:butt;stroke-linejoin:miter;stroke-miterlimit:3.86400008;stroke-opacity:1;stroke-dasharray:none"
       id="path402"
       inkscape:connector-curvature="0" />
    <path
       d="m 282.60858,521.34694 0,12.36625 m 15.45751,-21.2525 0,12.36375 m -15.45751,-3.4775 -1.9325,0.77375 m 1.9325,11.5925 7.7275,0.38625 7.73001,-9.275 m 45.98125,-10.81875 1.9325,-0.77125 m -20.86625,0.77125 9.66,1.54625 9.27375,-1.54625 m -18.93375,-17.38625 -1.9325,3.8625 1.9325,1.545 -1.9325,3.47875 1.9325,1.545 -1.9325,3.4775 1.9325,1.54625 m -0.38625,0 -0.3875,1.545 m 21.64,-15.84125 -1.9325,1.545 1.9325,3.865 -1.9325,1.15875 1.9325,3.86375 -1.9325,1.54625 1.9325,3.4775 m -1.9325,-16.615 1.9325,-1.15875 1.15875,-1.16125 0.77375,-1.545 0.385,-1.545 -0.385,-1.54625 -0.77375,-1.545 -1.15875,-1.15875 -1.9325,-1.15875 -1.9325,-1.16125 -2.3175,-0.77125 -2.70625,-0.38625 -5.0225,0 -2.705,0.38625 -2.3175,0.77125 -1.9325,1.16125 -1.9325,1.15875 -1.15875,1.15875 -0.77375,1.545 -0.38625,1.54625 0.38625,1.545 0.77375,1.545 1.15875,1.16125 1.9325,1.15875 m 21.6375,-1.9325 -1.545,-1.54625 -1.9325,-1.15875 -1.93125,-0.7725 -2.31875,-0.7725 -2.70375,-0.38625 -2.31875,-0.3875 -2.705,0 -2.31875,0.3875 -2.3175,0.77125 -1.54625,0.77375 -1.545,1.15875 -1.16125,1.16 m 22.79875,4.63625 -1.545,-1.16 -2.31875,-1.15875 -2.31875,-0.77125 -2.70375,-0.3875 -2.31875,-0.38625 -2.705,0.38625 -2.31875,0 -2.3175,0.7725 -1.54625,0.77375 m 20.0925,6.955 -1.9325,-1.16 -1.93125,-0.7725 -2.31875,-0.77375 -2.70375,-0.77125 -5.02375,0 -2.31875,0.385 -2.3175,0.38625 -1.54625,1.15875 m 20.0925,1.5475 -1.545,-0.77375 -1.9325,-0.77375 -2.3175,-0.77125 -2.32,-0.3875 -5.0225,0 -2.3175,0.3875 -1.9325,0.77125 -3.865,1.5475 m 0.38625,10.045 0.77375,0.38625 m 21.6375,-24.72875 -2.3175,-1.15875 -2.705,-1.15875 -2.705,-0.77375 -2.70375,-0.385 -5.7975,0 -2.70375,0.385 -2.705,0.77375 -1.9325,1.15875 m 23.57,6.56875 -2.3175,-1.54625 -2.31875,-0.77375 -2.70375,-0.77125 -3.09125,-0.77375 -5.7975,0 -2.70375,0.3875 -2.705,0.7725 -1.9325,1.15875 m 22.025,5.41 -2.70375,-1.16 -3.09125,-0.77125 -3.09125,-0.3875 -3.09125,-0.38625 -3.09125,0.38625 -3.09125,0.3875 -2.31875,0.77125 m 86.94125,40.185 -1.9325,-1.93125 -1.93125,-1.16 -1.93125,-1.15875 -1.9325,-0.38625"
       style="fill:none;stroke:#221e1f;stroke-width:0.625;stroke-linecap:butt;stroke-linejoin:miter;stroke-miterlimit:3.86400008;stroke-opacity:1;stroke-dasharray:none"
       id="path404"
       inkscape:connector-curvature="0" />
    <path
       d="m 265.21983,532.93944 -1.9325,0.38625 -1.9325,1.15875 -1.93,1.16 -1.9325,1.93125 m 0.385,-0.385 3.4775,3.47625 3.865,-7.7275 m 138.72126,0 3.86375,7.7275 3.86375,-3.09125 m -159.97251,46.75375 4.25125,1.545 -4.25125,7.7275 m 165.76876,-9.2725 -4.25,1.545 4.25,7.7275 m -3.86375,-11.59 4.25,-2.70625 m -166.54126,0 4.6375,2.70625"
       style="fill:none;stroke:#221e1f;stroke-width:0.625;stroke-linecap:butt;stroke-linejoin:miter;stroke-miterlimit:3.86400008;stroke-opacity:1;stroke-dasharray:none"
       id="path406"
       inkscape:connector-curvature="0" />
    <path
       d="m 251.69608,584.32944 4.25125,1.545 -4.25125,-1.545 0,9.2725 0,-9.2725 z"
       style="fill:#000000;fill-opacity:1;fill-rule:nonzero;stroke:#221e1f;stroke-width:0.625;stroke-linecap:butt;stroke-linejoin:miter;stroke-miterlimit:3.86400008;stroke-opacity:1;stroke-dasharray:none"
       id="path408"
       inkscape:connector-curvature="0" />
    <path
       d="m 417.46484,584.32944 -4.25,1.545 4.25,-1.545 0,9.2725 0,-9.2725 z"
       style="fill:#000000;fill-opacity:1;fill-rule:nonzero;stroke:#221e1f;stroke-width:0.625;stroke-linecap:butt;stroke-linejoin:miter;stroke-miterlimit:3.86400008;stroke-opacity:1;stroke-dasharray:none"
       id="path410"
       inkscape:connector-curvature="0" />
    <path
       d="m 403.94109,532.93944 7.7275,4.63625 -7.7275,-4.63625 3.86375,7.7275 -3.86375,-7.7275 z"
       style="fill:#000000;fill-opacity:1;fill-rule:nonzero;stroke:#221e1f;stroke-width:0.625;stroke-linecap:butt;stroke-linejoin:miter;stroke-miterlimit:3.86400008;stroke-opacity:1;stroke-dasharray:none"
       id="path412"
       inkscape:connector-curvature="0" />
    <path
       d="m 403.94109,532.93944 0.77125,0.38625 -0.77125,-0.38625 0.77125,0.38625 -0.77125,-0.38625 z"
       style="fill:#000000;fill-opacity:1;fill-rule:nonzero;stroke:#221e1f;stroke-width:0.625;stroke-linecap:butt;stroke-linejoin:miter;stroke-miterlimit:3.86400008;stroke-opacity:1;stroke-dasharray:none"
       id="path414"
       inkscape:connector-curvature="0" />
    <path
       d="m 403.94109,532.93944 0.77125,0.38625 -0.77125,-0.38625 0.77125,0.38625 -0.77125,-0.38625 z"
       style="fill:#000000;fill-opacity:1;fill-rule:nonzero;stroke:#221e1f;stroke-width:0.625;stroke-linecap:butt;stroke-linejoin:miter;stroke-miterlimit:3.86400008;stroke-opacity:1;stroke-dasharray:none"
       id="path416"
       inkscape:connector-curvature="0" />
    <path
       d="m 404.71234,533.32569 0.77375,0 -0.77375,0.3875 0,-0.3875 z"
       style="fill:#000000;fill-opacity:1;fill-rule:nonzero;stroke:#221e1f;stroke-width:0.625;stroke-linecap:butt;stroke-linejoin:miter;stroke-miterlimit:3.86400008;stroke-opacity:1;stroke-dasharray:none"
       id="path418"
       inkscape:connector-curvature="0" />
    <path
       d="m 405.48609,533.32569 0.3875,0.3875 -0.3875,0.38625 -0.77375,-0.38625 0.77375,-0.3875 z"
       style="fill:#000000;fill-opacity:1;fill-rule:nonzero;stroke:#221e1f;stroke-width:0.625;stroke-linecap:butt;stroke-linejoin:miter;stroke-miterlimit:3.86400008;stroke-opacity:1;stroke-dasharray:none"
       id="path420"
       inkscape:connector-curvature="0" />
    <path
       d="m 405.87359,533.71319 0.77125,0 -0.77125,0.38625 -0.3875,0 0.3875,-0.38625 z"
       style="fill:#000000;fill-opacity:1;fill-rule:nonzero;stroke:#221e1f;stroke-width:0.625;stroke-linecap:butt;stroke-linejoin:miter;stroke-miterlimit:3.86400008;stroke-opacity:1;stroke-dasharray:none"
       id="path422"
       inkscape:connector-curvature="0" />
    <path
       d="m 406.64484,533.71319 0.3875,0.38625 -0.3875,0.77125 -0.77125,-0.77125 0.77125,-0.38625 z"
       style="fill:#000000;fill-opacity:1;fill-rule:nonzero;stroke:#221e1f;stroke-width:0.625;stroke-linecap:butt;stroke-linejoin:miter;stroke-miterlimit:3.86400008;stroke-opacity:1;stroke-dasharray:none"
       id="path424"
       inkscape:connector-curvature="0" />
    <path
       d="m 407.03234,534.09944 0.7725,0.385 -0.7725,-0.385 -0.3875,0.77125 0.3875,-0.77125 z"
       style="fill:#000000;fill-opacity:1;fill-rule:nonzero;stroke:#221e1f;stroke-width:0.625;stroke-linecap:butt;stroke-linejoin:miter;stroke-miterlimit:3.86400008;stroke-opacity:1;stroke-dasharray:none"
       id="path426"
       inkscape:connector-curvature="0" />
    <path
       d="m 407.80484,534.48444 0,0.77375 -1.16,-0.3875 1.16,-0.38625 z"
       style="fill:#000000;fill-opacity:1;fill-rule:nonzero;stroke:#221e1f;stroke-width:0.625;stroke-linecap:butt;stroke-linejoin:miter;stroke-miterlimit:3.86400008;stroke-opacity:1;stroke-dasharray:none"
       id="path428"
       inkscape:connector-curvature="0" />
    <path
       d="m 407.80484,534.48444 0.7725,0.38625 -0.7725,0.77375 0,-1.16 z"
       style="fill:#000000;fill-opacity:1;fill-rule:nonzero;stroke:#221e1f;stroke-width:0.625;stroke-linecap:butt;stroke-linejoin:miter;stroke-miterlimit:3.86400008;stroke-opacity:1;stroke-dasharray:none"
       id="path430"
       inkscape:connector-curvature="0" />
    <path
       d="m 408.57734,534.87069 0.3875,0.3875 -0.3875,0.77125 -0.7725,-0.385 0.7725,-0.77375 z"
       style="fill:#000000;fill-opacity:1;fill-rule:nonzero;stroke:#221e1f;stroke-width:0.625;stroke-linecap:butt;stroke-linejoin:miter;stroke-miterlimit:3.86400008;stroke-opacity:1;stroke-dasharray:none"
       id="path432"
       inkscape:connector-curvature="0" />
    <path
       d="m 408.96484,535.25819 0.385,0.38625 -0.385,0.385 -0.3875,0 0.3875,-0.77125 z"
       style="fill:#000000;fill-opacity:1;fill-rule:nonzero;stroke:#221e1f;stroke-width:0.625;stroke-linecap:butt;stroke-linejoin:miter;stroke-miterlimit:3.86400008;stroke-opacity:1;stroke-dasharray:none"
       id="path434"
       inkscape:connector-curvature="0" />
    <path
       d="m 409.34984,535.64444 0.38625,0.385 0,0.3875 -0.77125,-0.3875 0.385,-0.385 z"
       style="fill:#000000;fill-opacity:1;fill-rule:nonzero;stroke:#221e1f;stroke-width:0.625;stroke-linecap:butt;stroke-linejoin:miter;stroke-miterlimit:3.86400008;stroke-opacity:1;stroke-dasharray:none"
       id="path436"
       inkscape:connector-curvature="0" />
    <path
       d="m 408.96484,536.02944 0.77125,0.3875 -0.77125,-0.3875 0.385,-0.385 -0.385,0.385 z"
       style="fill:#000000;fill-opacity:1;fill-rule:nonzero;stroke:#221e1f;stroke-width:0.625;stroke-linecap:butt;stroke-linejoin:miter;stroke-miterlimit:3.86400008;stroke-opacity:1;stroke-dasharray:none"
       id="path438"
       inkscape:connector-curvature="0" />
    <path
       d="m 409.34984,535.64444 -0.385,0.385 0.385,-0.385 -0.385,0.385 0.385,-0.385 z"
       style="fill:#000000;fill-opacity:1;fill-rule:nonzero;stroke:#221e1f;stroke-width:0.625;stroke-linecap:butt;stroke-linejoin:miter;stroke-miterlimit:3.86400008;stroke-opacity:1;stroke-dasharray:none"
       id="path440"
       inkscape:connector-curvature="0" />
    <path
       d="m 408.96484,536.02944 0.385,-0.385 -0.385,0.385 z"
       style="fill:#000000;fill-opacity:1;fill-rule:nonzero;stroke:#221e1f;stroke-width:0.625;stroke-linecap:butt;stroke-linejoin:miter;stroke-miterlimit:3.86400008;stroke-opacity:1;stroke-dasharray:none"
       id="path442"
       inkscape:connector-curvature="0" />
    <path
       d="m 408.96484,536.02944 0,0 0.385,-0.385 -0.385,0 0,0.385 z"
       style="fill:#000000;fill-opacity:1;fill-rule:nonzero;stroke:#221e1f;stroke-width:0.625;stroke-linecap:butt;stroke-linejoin:miter;stroke-miterlimit:3.86400008;stroke-opacity:1;stroke-dasharray:none"
       id="path444"
       inkscape:connector-curvature="0" />
    <path
       d="m 408.96484,535.64444 0.385,0 -0.385,0.385 0,-0.385 z"
       style="fill:#000000;fill-opacity:1;fill-rule:nonzero;stroke:#221e1f;stroke-width:0.625;stroke-linecap:butt;stroke-linejoin:miter;stroke-miterlimit:3.86400008;stroke-opacity:1;stroke-dasharray:none"
       id="path446"
       inkscape:connector-curvature="0" />
    <path
       d="m 408.96484,536.02944 0.385,-0.385 -0.385,0.385 0.385,0 -0.385,0 z"
       style="fill:#000000;fill-opacity:1;fill-rule:nonzero;stroke:#221e1f;stroke-width:0.625;stroke-linecap:butt;stroke-linejoin:miter;stroke-miterlimit:3.86400008;stroke-opacity:1;stroke-dasharray:none"
       id="path448"
       inkscape:connector-curvature="0" />
    <path
       d="m 409.34984,536.02944 -0.385,0 0,-0.385 0,0.385 0.385,0 z"
       style="fill:#000000;fill-opacity:1;fill-rule:nonzero;stroke:#221e1f;stroke-width:0.625;stroke-linecap:butt;stroke-linejoin:miter;stroke-miterlimit:3.86400008;stroke-opacity:1;stroke-dasharray:none"
       id="path450"
       inkscape:connector-curvature="0" />
    <path
       d="m 408.96484,536.02944 0,-0.385 0,0.385 0.385,0 -0.385,0 z"
       style="fill:#000000;fill-opacity:1;fill-rule:nonzero;stroke:#221e1f;stroke-width:0.625;stroke-linecap:butt;stroke-linejoin:miter;stroke-miterlimit:3.86400008;stroke-opacity:1;stroke-dasharray:none"
       id="path452"
       inkscape:connector-curvature="0" />
    <path
       d="m 409.34984,536.02944 -0.385,0 0.385,0 -0.7725,0 0.7725,0 z"
       style="fill:#000000;fill-opacity:1;fill-rule:nonzero;stroke:#221e1f;stroke-width:0.625;stroke-linecap:butt;stroke-linejoin:miter;stroke-miterlimit:3.86400008;stroke-opacity:1;stroke-dasharray:none"
       id="path454"
       inkscape:connector-curvature="0" />
    <path
       d="m 408.57734,536.02944 0.7725,0 -0.385,-0.385 -0.3875,0.385 z"
       style="fill:#000000;fill-opacity:1;fill-rule:nonzero;stroke:#221e1f;stroke-width:0.625;stroke-linecap:butt;stroke-linejoin:miter;stroke-miterlimit:3.86400008;stroke-opacity:1;stroke-dasharray:none"
       id="path456"
       inkscape:connector-curvature="0" />
    <path
       d="m 409.73609,536.02944 0.3875,0.3875 -0.3875,0 0,-0.3875 z"
       style="fill:#000000;fill-opacity:1;fill-rule:nonzero;stroke:#221e1f;stroke-width:0.625;stroke-linecap:butt;stroke-linejoin:miter;stroke-miterlimit:3.86400008;stroke-opacity:1;stroke-dasharray:none"
       id="path458"
       inkscape:connector-curvature="0" />
    <path
       d="m 410.12359,536.41694 0.38625,0 0,0.77375 -0.77375,-0.77375 0.3875,0 z"
       style="fill:#000000;fill-opacity:1;fill-rule:nonzero;stroke:#221e1f;stroke-width:0.625;stroke-linecap:butt;stroke-linejoin:miter;stroke-miterlimit:3.86400008;stroke-opacity:1;stroke-dasharray:none"
       id="path460"
       inkscape:connector-curvature="0" />
    <path
       d="m 410.50984,536.41694 0.385,0.38625 0,0.3875 -0.385,0 0,-0.77375 z"
       style="fill:#000000;fill-opacity:1;fill-rule:nonzero;stroke:#221e1f;stroke-width:0.625;stroke-linecap:butt;stroke-linejoin:miter;stroke-miterlimit:3.86400008;stroke-opacity:1;stroke-dasharray:none"
       id="path462"
       inkscape:connector-curvature="0" />
    <path
       d="m 410.89484,536.80319 0.77375,0.7725 -0.77375,-0.385 0,-0.3875 z"
       style="fill:#000000;fill-opacity:1;fill-rule:nonzero;stroke:#221e1f;stroke-width:0.625;stroke-linecap:butt;stroke-linejoin:miter;stroke-miterlimit:3.86400008;stroke-opacity:1;stroke-dasharray:none"
       id="path464"
       inkscape:connector-curvature="0" />
    <path
       d="m 265.21983,532.93944 -3.865,7.7275 3.865,-7.7275 -7.3425,4.63625 7.3425,-4.63625 z"
       style="fill:#000000;fill-opacity:1;fill-rule:nonzero;stroke:#221e1f;stroke-width:0.625;stroke-linecap:butt;stroke-linejoin:miter;stroke-miterlimit:3.86400008;stroke-opacity:1;stroke-dasharray:none"
       id="path466"
       inkscape:connector-curvature="0" />
    <path
       d="m 265.21983,532.93944 0,0 -3.865,7.7275 3.865,-7.7275 z"
       style="fill:#000000;fill-opacity:1;fill-rule:nonzero;stroke:#221e1f;stroke-width:0.625;stroke-linecap:butt;stroke-linejoin:miter;stroke-miterlimit:3.86400008;stroke-opacity:1;stroke-dasharray:none"
       id="path468"
       inkscape:connector-curvature="0" />
    <path
       d="m 257.49233,537.57569 0.385,-0.385 0.3875,0 -0.3875,0.385 -0.385,0 z"
       style="fill:#000000;fill-opacity:1;fill-rule:nonzero;stroke:#221e1f;stroke-width:0.625;stroke-linecap:butt;stroke-linejoin:miter;stroke-miterlimit:3.86400008;stroke-opacity:1;stroke-dasharray:none"
       id="path470"
       inkscape:connector-curvature="0" />
    <path
       d="m 257.87733,537.19069 0.3875,-0.3875 0.38625,0.3875 -0.77375,0 z"
       style="fill:#000000;fill-opacity:1;fill-rule:nonzero;stroke:#221e1f;stroke-width:0.625;stroke-linecap:butt;stroke-linejoin:miter;stroke-miterlimit:3.86400008;stroke-opacity:1;stroke-dasharray:none"
       id="path472"
       inkscape:connector-curvature="0" />
    <path
       d="m 258.26483,536.80319 0.38625,-0.38625 0.77375,0.38625 -0.77375,0.3875 -0.38625,-0.3875 z"
       style="fill:#000000;fill-opacity:1;fill-rule:nonzero;stroke:#221e1f;stroke-width:0.625;stroke-linecap:butt;stroke-linejoin:miter;stroke-miterlimit:3.86400008;stroke-opacity:1;stroke-dasharray:none"
       id="path474"
       inkscape:connector-curvature="0" />
    <path
       d="m 258.65108,536.41694 0.77375,-0.3875 0,0.77375 -0.77375,-0.38625 z"
       style="fill:#000000;fill-opacity:1;fill-rule:nonzero;stroke:#221e1f;stroke-width:0.625;stroke-linecap:butt;stroke-linejoin:miter;stroke-miterlimit:3.86400008;stroke-opacity:1;stroke-dasharray:none"
       id="path476"
       inkscape:connector-curvature="0" />
    <path
       d="m 259.42483,536.02944 0.385,-0.385 0.77375,0.385 -1.15875,0.3875 0,-0.3875 z"
       style="fill:#000000;fill-opacity:1;fill-rule:nonzero;stroke:#221e1f;stroke-width:0.625;stroke-linecap:butt;stroke-linejoin:miter;stroke-miterlimit:3.86400008;stroke-opacity:1;stroke-dasharray:none"
       id="path478"
       inkscape:connector-curvature="0" />
    <path
       d="m 259.80983,535.64444 0.38625,-0.38625 0.3875,0.38625 0,0.385 -0.77375,-0.385 z"
       style="fill:#000000;fill-opacity:1;fill-rule:nonzero;stroke:#221e1f;stroke-width:0.625;stroke-linecap:butt;stroke-linejoin:miter;stroke-miterlimit:3.86400008;stroke-opacity:1;stroke-dasharray:none"
       id="path480"
       inkscape:connector-curvature="0" />
    <path
       d="m 260.19608,535.25819 0.3875,-0.3875 0.77125,0.77375 -0.77125,0 -0.3875,-0.38625 z"
       style="fill:#000000;fill-opacity:1;fill-rule:nonzero;stroke:#221e1f;stroke-width:0.625;stroke-linecap:butt;stroke-linejoin:miter;stroke-miterlimit:3.86400008;stroke-opacity:1;stroke-dasharray:none"
       id="path482"
       inkscape:connector-curvature="0" />
    <path
       d="m 260.58358,534.87069 0.38625,-0.38625 0.385,0.77375 0,0.38625 -0.77125,-0.77375 z"
       style="fill:#000000;fill-opacity:1;fill-rule:nonzero;stroke:#221e1f;stroke-width:0.625;stroke-linecap:butt;stroke-linejoin:miter;stroke-miterlimit:3.86400008;stroke-opacity:1;stroke-dasharray:none"
       id="path484"
       inkscape:connector-curvature="0" />
    <path
       d="m 260.96983,534.48444 0.385,0 0.77375,0.38625 -0.77375,0.3875 -0.385,-0.77375 z"
       style="fill:#000000;fill-opacity:1;fill-rule:nonzero;stroke:#221e1f;stroke-width:0.625;stroke-linecap:butt;stroke-linejoin:miter;stroke-miterlimit:3.86400008;stroke-opacity:1;stroke-dasharray:none"
       id="path486"
       inkscape:connector-curvature="0" />
    <path
       d="m 261.35483,534.48444 0.77375,-0.385 0,0.77125 -0.77375,-0.38625 z"
       style="fill:#000000;fill-opacity:1;fill-rule:nonzero;stroke:#221e1f;stroke-width:0.625;stroke-linecap:butt;stroke-linejoin:miter;stroke-miterlimit:3.86400008;stroke-opacity:1;stroke-dasharray:none"
       id="path488"
       inkscape:connector-curvature="0" />
    <path
       d="m 262.12858,534.09944 0,0 0.7725,0.385 -0.7725,0.38625 0,-0.77125 z"
       style="fill:#000000;fill-opacity:1;fill-rule:nonzero;stroke:#221e1f;stroke-width:0.625;stroke-linecap:butt;stroke-linejoin:miter;stroke-miterlimit:3.86400008;stroke-opacity:1;stroke-dasharray:none"
       id="path490"
       inkscape:connector-curvature="0" />
    <path
       d="m 262.12858,534.09944 0.7725,-0.38625 0.38625,0.38625 -0.38625,0.385 -0.7725,-0.385 z"
       style="fill:#000000;fill-opacity:1;fill-rule:nonzero;stroke:#221e1f;stroke-width:0.625;stroke-linecap:butt;stroke-linejoin:miter;stroke-miterlimit:3.86400008;stroke-opacity:1;stroke-dasharray:none"
       id="path492"
       inkscape:connector-curvature="0" />
    <path
       d="m 262.90108,533.71319 0.38625,-0.3875 0.77375,0.3875 -0.77375,0.77125 -0.38625,-0.77125 z"
       style="fill:#000000;fill-opacity:1;fill-rule:nonzero;stroke:#221e1f;stroke-width:0.625;stroke-linecap:butt;stroke-linejoin:miter;stroke-miterlimit:3.86400008;stroke-opacity:1;stroke-dasharray:none"
       id="path494"
       inkscape:connector-curvature="0" />
    <path
       d="m 263.28733,533.32569 0.77375,0 0,0.3875 -0.77375,-0.3875 z"
       style="fill:#000000;fill-opacity:1;fill-rule:nonzero;stroke:#221e1f;stroke-width:0.625;stroke-linecap:butt;stroke-linejoin:miter;stroke-miterlimit:3.86400008;stroke-opacity:1;stroke-dasharray:none"
       id="path496"
       inkscape:connector-curvature="0" />
    <path
       d="m 264.06108,533.32569 1.15875,-0.38625 -1.15875,0.38625 0,0.3875 0,-0.3875 z"
       style="fill:#000000;fill-opacity:1;fill-rule:nonzero;stroke:#221e1f;stroke-width:0.625;stroke-linecap:butt;stroke-linejoin:miter;stroke-miterlimit:3.86400008;stroke-opacity:1;stroke-dasharray:none"
       id="path498"
       inkscape:connector-curvature="0" />
    <path
       d="m 392.34859,573.89694 4.25,7.7275 20.86625,11.9775 m -140.65126,-19.705 -4.2525,7.7275 m 58.73501,-61.8225 3.4775,0 m -11.5925,5.0225 5.41,0 m -13.91125,5.02375 5.41,0 m -13.91125,4.63625 5.41,0 m -13.91,5.02375 5.79625,0 m -14.29751,5.0225 5.79501,0 m -14.29626,4.6375 5.7975,0 m -14.2975,5.0225 5.795,0 m -14.29625,4.63625 5.795,0 m -5.795,0 -2.32,-3.8625 m 8.5025,4.63625 -0.3875,-0.77375 m 2.70625,-4.63625 -0.38625,-1.15875 m 6.56875,1.54625 -0.3875,-0.3875 m 2.705,-5.0225 -0.385,-1.15875 m 6.5675,1.93125 -0.385,-0.7725 m 2.70375,-4.6375 -0.7725,-1.15875 m 6.95501,1.54625 -0.3875,-0.3875 m 2.70625,-5.0225 -0.77375,-1.15875 m 6.57,1.545 0,-0.38625 m 2.70375,-5.02375 -0.77125,-1.15875 m 6.56875,1.9325 -0.3875,-0.77375 m 3.09125,-4.63625 -0.77125,-1.15875 m 6.56875,1.545 -0.3875,-0.38625 m 3.09125,-5.02375 -0.77375,-1.15875 m 6.57,1.9325 -0.38625,-0.77375 m 2.705,-5.0225 -0.38625,-0.7725 m -68.78126,42.88875 1.54625,-3.09125 m 5.795,0 2.70625,-4.63625 m 5.795,0 2.705,-5.0225 m 5.7975,0 2.70375,-4.6375 m 5.79501,0 2.70625,-5.0225 m 5.79625,0 2.70375,-5.02375 m 5.41,0 3.09125,-4.63625 m 5.41,0 3.09125,-5.02375 m 5.41,0 2.705,-5.0225 m 3.4775,0 2.3175,0 m 2.70625,5.0225 5.795,0 m 2.705,5.02375 5.7975,0 m 2.70375,4.63625 5.79625,0 m 2.705,5.02375 5.79625,0 m 2.70375,5.0225 5.7975,0 m 2.70375,4.6375 5.41,0 m 3.09125,5.0225 5.41,0 m 3.0925,4.63625 5.4075,0 m -64.915,-34.0025 -2.70625,-5.0225 m 11.20625,10.04625 -2.705,-5.02375 m 11.20625,9.66 -2.70375,-4.63625 m 11.205,9.66 -2.705,-5.02375 m 11.205,10.04625 -2.70375,-5.0225 m 11.205,9.66 -2.70375,-4.6375 m 11.205,9.66 -3.09125,-5.0225 m 11.59375,9.65875 -3.0925,-4.63625 m 10.4325,8.115 -1.9325,-3.47875 m -67.62125,-39.025 0.3875,-0.7725 m 2.31875,6.1825 0,-0.3875 m 5.795,0 0.3875,-0.77125 m 2.3175,6.18125 0,-0.38625 m 5.7975,0 0.385,-1.15875 m 2.31875,6.18125 0,-0.38625 m 5.79625,0 0.38625,-0.77125 m 2.31875,6.18125 0,-0.38625 m 5.79625,0 0.38625,-1.15875"
       style="fill:none;stroke:#221e1f;stroke-width:0.625;stroke-linecap:butt;stroke-linejoin:miter;stroke-miterlimit:3.86400008;stroke-opacity:1;stroke-dasharray:none"
       id="path500"
       inkscape:connector-curvature="0" />
    <path
       d="m 373.41484,544.53069 0.385,0 m 5.7975,0 0.38625,-1.15875 m 1.93125,6.1825 0.38625,-0.38625 m 5.41,0 0.7725,-0.7725 m 1.9325,6.1825 0.38625,-0.3875 m 5.41,0 0.7725,-1.15875 m 1.9325,6.1825 0.3875,-0.3875 m 5.4075,0 2.32,-3.8625 m -126.63126,11.74625 c 17.12626,7.59125 35.65501,11.5125 54.39001,11.5125 18.705,0 37.2025,-3.90875 54.30625,-11.47625 m -54.3625,-37.9475 c -19.9075,9.8475 -38.2225,22.62625 -54.33376,37.91125 m 108.60001,0.0787 c -16.085,-15.27375 -34.35625,-28.06875 -54.21125,-37.965"
       style="fill:none;stroke:#221e1f;stroke-width:0.625;stroke-linecap:butt;stroke-linejoin:miter;stroke-miterlimit:3.86400008;stroke-opacity:1;stroke-dasharray:none"
       id="path502"
       inkscape:connector-curvature="0" />
    <path
       d="m 334.38734,529.07569 0.38625,0 -0.38625,0 z"
       style="fill:#ffff00;fill-opacity:1;fill-rule:nonzero;stroke:#221e1f;stroke-width:0.625;stroke-linecap:butt;stroke-linejoin:miter;stroke-miterlimit:3.86400008;stroke-opacity:1;stroke-dasharray:none"
       id="path504"
       inkscape:connector-curvature="0" />
    <path
       d="m 334.38734,529.07569 0.38625,0 12.365,6.56875 -12.75125,-6.56875 z"
       style="fill:#ffff00;fill-opacity:1;fill-rule:nonzero;stroke:#221e1f;stroke-width:0.625;stroke-linecap:butt;stroke-linejoin:miter;stroke-miterlimit:3.86400008;stroke-opacity:1;stroke-dasharray:none"
       id="path506"
       inkscape:connector-curvature="0" />
    <path
       d="m 280.29108,566.94194 108.58001,0 -108.58001,0 z"
       style="fill:#ffff00;fill-opacity:1;fill-rule:nonzero;stroke:#221e1f;stroke-width:0.625;stroke-linecap:butt;stroke-linejoin:miter;stroke-miterlimit:3.86400008;stroke-opacity:1;stroke-dasharray:none"
       id="path508"
       inkscape:connector-curvature="0" />
    <path
       d="m 306.56484,575.44319 55.64375,0 -55.64375,0 z"
       style="fill:#ffff00;fill-opacity:1;fill-rule:nonzero;stroke:#221e1f;stroke-width:0.625;stroke-linecap:butt;stroke-linejoin:miter;stroke-miterlimit:3.86400008;stroke-opacity:1;stroke-dasharray:none"
       id="path510"
       inkscape:connector-curvature="0" />
    <path
       d="m 306.56484,575.44319 56.03,0 -56.03,0 z"
       style="fill:#ffff00;fill-opacity:1;fill-rule:nonzero;stroke:#221e1f;stroke-width:0.625;stroke-linecap:butt;stroke-linejoin:miter;stroke-miterlimit:3.86400008;stroke-opacity:1;stroke-dasharray:none"
       id="path512"
       inkscape:connector-curvature="0" />
    <path
       d="m 320.47734,577.76069 27.82,0 -27.82,0 z"
       style="fill:#ffff00;fill-opacity:1;fill-rule:nonzero;stroke:#221e1f;stroke-width:0.625;stroke-linecap:butt;stroke-linejoin:miter;stroke-miterlimit:3.86400008;stroke-opacity:1;stroke-dasharray:none"
       id="path514"
       inkscape:connector-curvature="0" />
    <path
       d="m 320.47734,577.76069 28.20625,0 -28.20625,0 z"
       style="fill:#ffff00;fill-opacity:1;fill-rule:nonzero;stroke:#221e1f;stroke-width:0.625;stroke-linecap:butt;stroke-linejoin:miter;stroke-miterlimit:3.86400008;stroke-opacity:1;stroke-dasharray:none"
       id="path516"
       inkscape:connector-curvature="0" />
    <path
       d="m 277.67483,561.38569 0,4.84125 c 0,0 6.48,3.42125 10.8,5.215 9.60001,3.9875 15.43001,5.45 25.69751,7.07625 10.76875,1.705 17.04625,1.7225 27.93125,1.11625 10.70625,-0.595 16.86,-1.2125 27.1875,-4.09625 9.3525,-2.61 23.09,-9.31125 23.09,-9.31125 l 0,-4.84125 -114.70626,0 z"
       style="fill:#ffb800;fill-opacity:1;fill-rule:nonzero;stroke:#221e1f;stroke-width:0.625;stroke-linecap:butt;stroke-linejoin:miter;stroke-miterlimit:3.86400008;stroke-opacity:1;stroke-dasharray:none"
       id="path518"
       inkscape:connector-curvature="0" />
    <path
       d="m 392.38109,561.38569 -57.35375,-33.14625 -57.35251,33.14625 c 0,0 6.48,3.42 10.8,5.215 9.60001,3.9875 15.43001,5.44875 25.69751,7.075 10.76875,1.70625 17.04625,1.72375 27.93125,1.11875 10.70625,-0.59625 16.86,-1.21375 27.1875,-4.0975 9.3525,-2.61125 23.09,-9.31125 23.09,-9.31125 z"
       style="fill:#ffb800;fill-opacity:1;fill-rule:nonzero;stroke:#221e1f;stroke-width:0.625;stroke-linecap:butt;stroke-linejoin:miter;stroke-miterlimit:3.86400008;stroke-opacity:1;stroke-dasharray:none"
       id="path520"
       inkscape:connector-curvature="0" />
    <text
       id="text522"
       x="482.63373"
       y="540.70557"
       style="font-size:15px">
      <tspan
         style="font-size:10px;font-variant:normal;font-weight:normal;writing-mode:lr-tb;fill:#221e1f;fill-opacity:1;fill-rule:nonzero;stroke:none;font-family:Frutiger;-inkscape-font-specification:Frutiger-Roman"
         x="482.63373 492.33374 497.89374 500.67374"
         y="540.70557"
         sodipodi:role="line"
         id="tspan524">Weld</tspan>
    </text>
    <g
       id="g3147"
       ns0:preamble=""
       ns0:text="$^{90}$Sr"
       transform="matrix(2.612612,0,0,2.612612,-273.03569,214.52725)">
      <defs
         id="defs3149">
        <g
           id="g3151">
          <symbol
             id="textext-43727bad-0"
             overflow="visible"
             style="overflow:visible">
            <path
               id="path3154"
               d="m 2.90625,-2.078125 c 0,1.734375 -0.84375,2 -1.265625,2 -0.15625,0 -0.53125,-0.015625 -0.71875,-0.234375 0.296875,-0.03125 0.3125,-0.265625 0.3125,-0.328125 0,-0.171875 -0.125,-0.328125 -0.328125,-0.328125 -0.203125,0 -0.328125,0.140625 -0.328125,0.34375 0,0.46875 0.390625,0.765625 1.0625,0.765625 1,0 1.9375,-0.9375 1.9375,-2.4375 C 3.578125,-4.015625 2.8125,-4.625 2,-4.625 c -0.234375,0 -0.703125,0.03125 -1.109375,0.421875 -0.234375,0.234375 -0.515625,0.5 -0.515625,1.125 0,0.890625 0.703125,1.546875 1.515625,1.546875 0.5625,0 0.859375,-0.375 1.015625,-0.6875 z m -0.96875,0.34375 c -0.28125,0 -0.53125,-0.078125 -0.734375,-0.40625 -0.15625,-0.25 -0.15625,-0.546875 -0.15625,-0.9375 0,-0.40625 0,-0.671875 0.203125,-0.953125 0.171875,-0.25 0.390625,-0.390625 0.75,-0.390625 0.359375,0 0.578125,0.21875 0.6875,0.40625 0.1875,0.28125 0.203125,0.78125 0.203125,1.015625 0,0.90625 -0.515625,1.265625 -0.953125,1.265625 z m 0,0"
               style="stroke:none"
               inkscape:connector-curvature="0" />
          </symbol>
          <symbol
             id="textext-43727bad-1"
             overflow="visible"
             style="overflow:visible">
            <path
               id="path3157"
               d="M 3.59375,-2.21875 C 3.59375,-2.984375 3.5,-3.546875 3.1875,-4.03125 2.96875,-4.34375 2.53125,-4.625 1.984375,-4.625 c -1.625,0 -1.625,1.90625 -1.625,2.40625 0,0.5 0,2.359375 1.625,2.359375 1.609375,0 1.609375,-1.859375 1.609375,-2.359375 z M 1.984375,-0.0625 c -0.328125,0 -0.75,-0.1875 -0.890625,-0.75 C 1,-1.21875 1,-1.796875 1,-2.3125 1,-2.828125 1,-3.359375 1.09375,-3.734375 1.25,-4.28125 1.6875,-4.4375 1.984375,-4.4375 c 0.375,0 0.734375,0.234375 0.859375,0.640625 0.109375,0.375 0.125,0.875 0.125,1.484375 0,0.515625 0,1.03125 -0.09375,1.46875 -0.140625,0.640625 -0.609375,0.78125 -0.890625,0.78125 z m 0,0"
               style="stroke:none"
               inkscape:connector-curvature="0" />
          </symbol>
          <symbol
             id="textext-43727bad-2"
             overflow="visible"
             style="overflow:visible">
            <path
               id="path3160"
               d="m 3.484375,-3.875 -1.28125,-0.296875 c -0.625,-0.15625 -1,-0.6875 -1,-1.265625 0,-0.703125 0.53125,-1.3125 1.3125,-1.3125 1.65625,0 1.875,1.640625 1.9375,2.078125 0.015625,0.0625 0.015625,0.125 0.125,0.125 0.125,0 0.125,-0.046875 0.125,-0.234375 l 0,-2 c 0,-0.171875 0,-0.25 -0.109375,-0.25 -0.0625,0 -0.078125,0.015625 -0.140625,0.140625 l -0.359375,0.5625 C 3.796875,-6.625 3.390625,-7.03125 2.5,-7.03125 c -1.109375,0 -1.9375,0.875 -1.9375,1.9375 0,0.828125 0.53125,1.5625 1.296875,1.828125 0.109375,0.03125 0.625,0.15625 1.328125,0.328125 0.265625,0.0625 0.5625,0.140625 0.84375,0.5 0.203125,0.265625 0.3125,0.59375 0.3125,0.921875 0,0.703125 -0.5,1.421875 -1.34375,1.421875 -0.28125,0 -1.046875,-0.046875 -1.578125,-0.53125 C 0.84375,-1.171875 0.8125,-1.796875 0.8125,-2.15625 0.796875,-2.265625 0.71875,-2.265625 0.6875,-2.265625 c -0.125,0 -0.125,0.078125 -0.125,0.25 l 0,2 c 0,0.171875 0,0.234375 0.109375,0.234375 0.0625,0 0.078125,-0.015625 0.140625,-0.125 0,-0.015625 0.03125,-0.046875 0.359375,-0.578125 0.3125,0.34375 0.953125,0.703125 1.84375,0.703125 1.15625,0 1.953125,-0.96875 1.953125,-2.078125 0,-0.984375 -0.65625,-1.8125 -1.484375,-2.015625 z m 0,0"
               style="stroke:none"
               inkscape:connector-curvature="0" />
          </symbol>
          <symbol
             id="textext-43727bad-3"
             overflow="visible"
             style="overflow:visible">
            <path
               id="path3163"
               d="m 1.671875,-3.3125 0,-1.09375 -1.390625,0.109375 0,0.3125 c 0.703125,0 0.78125,0.0625 0.78125,0.5625 l 0,2.671875 c 0,0.4375 -0.109375,0.4375 -0.78125,0.4375 l 0,0.3125 c 0.390625,-0.015625 0.859375,-0.03125 1.140625,-0.03125 0.390625,0 0.859375,0 1.265625,0.03125 l 0,-0.3125 -0.21875,0 c -0.734375,0 -0.75,-0.109375 -0.75,-0.46875 l 0,-1.53125 c 0,-0.984375 0.421875,-1.875 1.171875,-1.875 0.0625,0 0.09375,0 0.109375,0.015625 -0.03125,0 -0.234375,0.125 -0.234375,0.390625 0,0.265625 0.21875,0.421875 0.4375,0.421875 0.171875,0 0.421875,-0.125 0.421875,-0.4375 0,-0.3125 -0.3125,-0.609375 -0.734375,-0.609375 -0.734375,0 -1.09375,0.671875 -1.21875,1.09375 z m 0,0"
               style="stroke:none"
               inkscape:connector-curvature="0" />
          </symbol>
        </g>
      </defs>
      <g
         id="textext-43727bad-4">
        <g
           id="g3166"
           style="fill:#000000;fill-opacity:1">
          <use
             id="use3168"
             y="131.149"
             x="223.43201"
             xlink:href="#textext-43727bad-0"
             width="312.22638"
             height="207.34801" />
          <use
             id="use3170"
             y="131.149"
             x="227.40358"
             xlink:href="#textext-43727bad-1"
             width="312.22638"
             height="207.34801" />
        </g>
        <g
           id="g3172"
           style="fill:#000000;fill-opacity:1">
          <use
             id="use3174"
             y="134.765"
             x="231.873"
             xlink:href="#textext-43727bad-2"
             width="312.22638"
             height="207.34801" />
          <use
             id="use3176"
             y="134.765"
             x="237.40822"
             xlink:href="#textext-43727bad-3"
             width="312.22638"
             height="207.34801" />
        </g>
      </g>
    </g>
  </g>
</svg>
