<?xml version="1.0" encoding="UTF-8" standalone="no"?>
<!-- Created with Inkscape (http://www.inkscape.org/) -->
<svg xmlns:dc="http://purl.org/dc/elements/1.1/" xmlns:cc="http://creativecommons.org/ns#" xmlns:rdf="http://www.w3.org/1999/02/22-rdf-syntax-ns#" xmlns:svg="http://www.w3.org/2000/svg" xmlns="http://www.w3.org/2000/svg" xmlns:inkscape="http://www.inkscape.org/namespaces/inkscape" version="1.1" width="387.33301" height="298" viewBox="0 0 387.333 298" id="Ebene_2" xml:space="preserve"><metadata id="metadata162"><rdf:RDF><cc:Work rdf:about=""><dc:format>image/svg+xml</dc:format><dc:type rdf:resource="http://purl.org/dc/dcmitype/StillImage"/></cc:Work></rdf:RDF></metadata><defs id="defs160"/><g id="Ebene_4"><g id="g4"><path d="m 353.542,11.5 c 0,0 7.791,2.417 7.791,10.833 0,20.949 -81.75,48.495 -81.75,63 0,0 0.031,-2.176 0.25,-4.833 2.125,-25.833 74.5,-44.251 74.5,-64.833 0,-3.704 -0.791,-4.167 -0.791,-4.167 z" inkscape:connector-curvature="0" id="path6" style="fill:none;stroke:#000000"/><path d="m 360.583,142.604 c 0,0 2.294,15.791 -43.166,35.396 -30.917,13.333 -36.834,26.916 -36.834,26.916 0,0 -2.459,-15.989 30.584,-32.333 46.5,-23 49.416,-29.979 49.416,-29.979 z" inkscape:connector-curvature="0" id="path8" style="fill:none;stroke:#000000"/><path d="m 363.083,80.875 c 0,0 -3.39,23.532 -44.084,40.792 -24.998,10.603 -42.928,18.042 -53,23.333 -9.402,4.938 -11.77,8.084 -11.77,8.084 0,0 -8.73,-14.917 54.27,-40.583 48.043,-19.574 54.584,-31.626 54.584,-31.626 z" inkscape:connector-curvature="0" id="path10" style="fill:none;stroke:#000000"/><path d="m 362,202.417 c 0,0 5,15.333 -48.917,41 -30.4,14.472 -28.166,28.667 -28.166,28.667 0,0 -19.827,-17.142 25.332,-37.001 C 353.833,215.917 362,202.417 362,202.417 z" inkscape:connector-curvature="0" id="path12" style="fill:none;stroke:#000000"/></g><polygon points="323.458,205.937 327.083,208.812 323.8,211.75 355.501,211.75 360.417,205.937 " id="polygon14" style="fill:#60b84f;stroke:#000000"/><polygon points="325.833,208.812 322.402,211.75 283.834,211.75 281.001,205.937 322.083,205.937 " id="polygon16" style="fill:#fffc60;stroke:#000000"/><polygon points="324.484,81.812 328.109,84.687 324.826,87.625 359.734,87.625 362.75,81.812 " id="polygon18" style="fill:#60b84f;stroke:#000000"/><polygon points="326.859,84.687 323.425,87.625 279.984,87.625 280.109,81.812 323.109,81.812 " id="polygon20" style="fill:#fffc60;stroke:#000000"/><polygon points="325.984,61.062 322.359,63.937 325.359,66.875 293.359,66.875 300.667,61.062 " id="polygon22" style="fill:#60b84f;stroke:#000000"/><polygon points="323.609,63.937 326.757,66.875 351.984,66.875 342.609,61.062 327.359,61.062 " id="polygon24" style="fill:#fffc60;stroke:#000000"/><path d="m 288.833,71.312 h 34.275 c 0,0 -1.774,1.346 -1.774,2.846 0,1.5 1.524,2.966 1.524,2.966 H 283.5 l 5.333,-5.812 z" inkscape:connector-curvature="0" id="path26" style="fill:#fc6a40;stroke:#000000"/><path d="m 324.45,71.312 c 0,0 -2.282,1.346 -2.282,2.846 0,1.5 1.841,2.966 1.841,2.966 h 38.726 l -4.375,-5.813 h -33.91 z" inkscape:connector-curvature="0" id="path28" style="fill:#7fa4cd;stroke:#000000"/><path d="m 353.984,93.312 h -29.283 c 0,0 1.207,1.346 1.207,2.846 0,1.5 -1.24,2.966 -1.24,2.966 h 23.941 l 5.375,-5.812 z" inkscape:connector-curvature="0" id="path30" style="fill:#fc6a40;stroke:#000000"/><path d="m 323.642,93.312 c 0,0 1.433,1.346 1.433,2.846 0,1.5 -1.558,2.966 -1.558,2.966 h -30.033 l -8.375,-5.813 h 38.533 z" inkscape:connector-curvature="0" id="path32" style="fill:#7fa4cd;stroke:#000000"/><polygon points="321.8,132.987 325.425,135.862 322.425,138.8 359.8,138.8 353.55,132.987 " id="polygon34" style="fill:#60b84f;stroke:#000000"/><polygon points="322.175,143.487 325.8,146.363 322.8,149.3 355.55,149.3 359.917,143.487 " id="polygon36" style="fill:#60b84f;stroke:#000000"/><path d="m 322.142,123.487 c 0,0 -1.433,1.346 -1.433,2.846 0,1.5 1.558,2.966 1.558,2.966 h 24.908 l -15.625,-5.813 h -9.408 z" inkscape:connector-curvature="0" id="path38" style="fill:#7fa4cd;stroke:#000000"/><path d="m 352.925,152.488 h -29.75 c 0,0 1.774,1.346 1.774,2.846 0,1.5 -1.524,2.967 -1.524,2.967 H 345.8 l 7.125,-5.813 z" inkscape:connector-curvature="0" id="path40" style="fill:#fc6a40;stroke:#000000"/><path d="m 285.583,194.729 h 36.309 c 0,0 -1.773,1.346 -1.773,2.846 0,1.5 1.523,2.967 1.523,2.967 h -39.726 l 3.667,-5.813 z" inkscape:connector-curvature="0" id="path42" style="fill:#fc6a40;stroke:#000000"/><path d="m 323.234,194.729 c 0,0 -2.283,1.346 -2.283,2.846 0,1.5 1.842,2.967 1.842,2.967 h 38.475 l -4.5,-5.813 h -33.534 z" inkscape:connector-curvature="0" id="path44" style="fill:#7fa4cd;stroke:#000000"/><path d="m 349.833,217.229 h -26.225 c 0,0 1.207,1.346 1.207,2.846 0,1.5 -1.24,2.967 -1.24,2.967 h 18.674 l 7.584,-5.813 z" inkscape:connector-curvature="0" id="path46" style="fill:#fc6a40;stroke:#000000"/><path d="m 322.55,217.229 c 0,0 1.434,1.346 1.434,2.846 0,1.5 -1.559,2.967 -1.559,2.967 h -26.283 l -8.25,-5.813 h 34.658 z" inkscape:connector-curvature="0" id="path48" style="fill:#7fa4cd;stroke:#000000"/><polygon points="324.792,184.812 321.167,187.687 324.167,190.625 289.834,190.625 295.667,184.812 " id="polygon50" style="fill:#60b84f;stroke:#000000"/><polygon points="322.417,187.687 325.566,190.625 348.501,190.625 328.667,184.812 326.167,184.812 " id="polygon52" style="fill:#fffc60;stroke:#000000"/><path d="m 281.708,131.792 4.875,16.75 c 0,0 -1.625,-1.75 -3.5,-1 -1.875,0.75 -2.25,3.25 -2.25,3.25 l -5.625,-15.875 6.5,-3.125 z" inkscape:connector-curvature="0" id="path54" style="fill:#fc6a40;stroke:#000000"/><polygon points="272.458,149.167 271.583,152.542 267.958,152.167 263.333,141.792 269.083,137.917 " id="polygon56" style="fill:#fffc60;stroke:#000000"/><path d="m 289.458,172.042 -4.5,-10.625 c 0,0 -0.375,-3.25 1.375,-4.125 1.75,-0.875 4.125,0.75 4.125,0.75 l 6.5,14.375 -7.5,-0.375 z" inkscape:connector-curvature="0" id="path58" style="fill:#7fa4cd;stroke:#000000"/><polygon points="270.333,154.292 266.708,152.542 265.083,155.792 268.583,167.042 276.833,169.667 " id="polygon60" style="fill:#fffc60;stroke:#000000"/><g id="g62"><path d="m 285.458,37.417 c -12.592,-11.843 -0.379,-22.533 -0.379,-22.533 0,0 -5.551,13.052 40.504,27.625 43.167,13.659 37.5,38.367 37.5,38.367 0,0 -3.963,-14.602 -41.168,-27.699 -18.439,-6.493 -30.789,-10.429 -36.457,-15.76 z" inkscape:connector-curvature="0" id="path64" style="fill:#a8a8a8;stroke:#000000"/><path d="m 286.351,105.309 c -7.83,-9.705 -6.768,-19.975 -6.768,-19.975 0,0 1.16,14.051 46,25.958 45.188,12 35.125,31.125 35.125,31.125 0,0 0.75,-10.063 -38.793,-20.457 -18.906,-4.97 -29.683,-9.362 -35.564,-16.651 z" inkscape:connector-curvature="0" id="path66" style="fill:#a8a8a8;stroke:#000000"/><path d="m 259.833,172.333 c -7.75,-9.084 -5.916,-20.167 -5.916,-20.167 0,0 -1.417,22.167 61.916,19.834 53.801,-1.981 46.334,29.916 46.334,29.916 0,0 -11.5,-17.583 -53.167,-16.916 -19.78,0.317 -43.826,-6.406 -49.167,-12.667 z" inkscape:connector-curvature="0" id="path68" style="fill:#a8a8a8;stroke:#000000"/><path d="m 286.333,225.833 c -7.75,-9.084 -5.75,-20.667 -5.75,-20.667 0,0 3.873,14.626 45.75,28.5 15.422,5.109 24.677,9.24 30,13.917 13.604,11.952 1.584,22.166 1.584,22.166 0,0 3.333,-11.833 -35.584,-25.166 -18.714,-6.412 -30.658,-12.489 -36,-18.75 z" inkscape:connector-curvature="0" id="path70" style="fill:#a8a8a8;stroke:#000000"/></g></g><g id="Ebene_3"><g id="g73"><path d="m 182.542,18 c 0,0 7.792,2.417 7.792,10.833 0,20.949 -81.75,48.495 -81.75,63 0,0 0.031,-2.176 0.25,-4.833 2.125,-25.833 74.5,-44.251 74.5,-64.833 C 183.333,18.463 182.542,18 182.542,18 z" inkscape:connector-curvature="0" id="path75" style="fill:none;stroke:#000000"/><path d="m 189.583,149.104 c 0,0 2.294,15.791 -43.167,35.396 -30.917,13.333 -36.833,26.916 -36.833,26.916 0,0 -2.459,-15.989 30.583,-32.333 46.501,-23 49.417,-29.979 49.417,-29.979 z" inkscape:connector-curvature="0" id="path77" style="fill:none;stroke:#000000"/><path d="m 192.083,87.375 c 0,0 3.651,18.052 -41.75,37.792 -32.583,14.167 -38.438,20.25 -38.438,20.25 0,0 -4.646,-11 31.688,-27.25 47.357,-21.181 48.5,-30.792 48.5,-30.792 z" inkscape:connector-curvature="0" id="path79" style="fill:none;stroke:#000000"/><path d="m 191,208.917 c 0,0 5,15.333 -48.917,41 -30.4,14.472 -28.167,28.667 -28.167,28.667 0,0 -19.827,-17.142 25.333,-37.001 C 182.833,222.417 191,208.917 191,208.917 z" inkscape:connector-curvature="0" id="path81" style="fill:none;stroke:#000000"/></g><polygon points="153.083,88.479 156.708,91.354 153.425,94.292 188.333,94.292 191.833,88.479 " id="polygon83" style="fill:#60b84f;stroke:#000000"/><polygon points="155.458,91.354 152.026,94.292 108.583,94.292 108.708,88.479 151.708,88.479 " id="polygon85" style="fill:#fffc60;stroke:#000000"/><polygon points="154.583,67.729 150.958,70.604 153.958,73.542 121.083,73.542 129.167,67.729 " id="polygon87" style="fill:#60b84f;stroke:#000000"/><polygon points="152.208,70.604 155.357,73.542 180.583,73.542 171.208,67.729 155.958,67.729 " id="polygon89" style="fill:#fffc60;stroke:#000000"/><polygon points="150.083,139.604 153.708,142.479 150.425,145.417 188.083,145.417 181.833,139.604 " id="polygon91" style="fill:#60b84f;stroke:#000000"/><polygon points="152.458,142.479 149.026,145.417 111.958,145.417 118.208,139.604 148.708,139.604 " id="polygon93" style="fill:#fffc60;stroke:#000000"/><polygon points="150.458,150.104 154.083,152.979 150.8,155.917 183.833,155.917 188.667,150.104 " id="polygon95" style="fill:#60b84f;stroke:#000000"/><polygon points="152.833,152.979 149.401,155.917 121.833,155.917 115.083,150.104 149.083,150.104 " id="polygon97" style="fill:#fffc60;stroke:#000000"/><polygon points="151.458,188.854 155.083,191.729 151.8,194.667 180.208,194.667 170.083,188.854 " id="polygon99" style="fill:#60b84f;stroke:#000000"/><polygon points="153.833,191.729 150.401,194.667 122.833,194.667 130.458,188.854 150.083,188.854 " id="polygon101" style="fill:#fffc60;stroke:#000000"/><path d="m 116.833,77.979 h 34.875 c 0,0 -1.774,1.346 -1.774,2.846 0,1.5 1.524,2.966 1.524,2.966 h -39.792 l 5.167,-5.812 z" inkscape:connector-curvature="0" id="path103" style="fill:#fc6a40;stroke:#000000"/><path d="m 153.05,77.979 c 0,0 -2.284,1.346 -2.284,2.846 0,1.5 1.841,2.966 1.841,2.966 h 38.726 l -4.375,-5.813 H 153.05 z" inkscape:connector-curvature="0" id="path105" style="fill:#7fa4cd;stroke:#000000"/><path d="m 130.458,130.104 h 18.625 c 0,0 -1.774,1.346 -1.774,2.846 0,1.5 1.524,2.966 1.524,2.966 h -26.625 l 8.25,-5.812 z" inkscape:connector-curvature="0" id="path107" style="fill:#fc6a40;stroke:#000000"/><path d="m 150.425,130.104 c 0,0 -2.284,1.346 -2.284,2.846 0,1.5 1.841,2.966 1.841,2.966 h 25.476 l -15.625,-5.813 h -9.408 z" inkscape:connector-curvature="0" id="path109" style="fill:#7fa4cd;stroke:#000000"/><path d="m 116.833,199.479 h 33.875 c 0,0 -1.774,1.346 -1.774,2.846 0,1.5 1.524,2.967 1.524,2.967 h -38.125 l 4.5,-5.813 z" inkscape:connector-curvature="0" id="path111" style="fill:#fc6a40;stroke:#000000"/><path d="m 152.05,199.479 c 0,0 -2.284,1.346 -2.284,2.846 0,1.5 1.841,2.967 1.841,2.967 h 38.476 l -4.5,-5.813 H 152.05 z" inkscape:connector-curvature="0" id="path113" style="fill:#7fa4cd;stroke:#000000"/><path d="M 182.583,99.979 H 153.3 c 0,0 1.207,1.346 1.207,2.846 0,1.5 -1.24,2.966 -1.24,2.966 h 22.984 l 6.332,-5.812 z" inkscape:connector-curvature="0" id="path115" style="fill:#fc6a40;stroke:#000000"/><path d="m 152.242,99.979 c 0,0 1.433,1.346 1.433,2.846 0,1.5 -1.558,2.966 -1.558,2.966 h -30.034 l -8.375,-5.813 h 38.534 z" inkscape:connector-curvature="0" id="path117" style="fill:#7fa4cd;stroke:#000000"/><path d="m 181.208,159.104 h -30.034 c 0,0 1.207,1.346 1.207,2.846 0,1.5 -1.24,2.967 -1.24,2.967 h 22.942 l 7.125,-5.813 z" inkscape:connector-curvature="0" id="path119" style="fill:#fc6a40;stroke:#000000"/><path d="m 150.117,159.104 c 0,0 1.433,1.346 1.433,2.846 0,1.5 -1.558,2.967 -1.558,2.967 h -10.159 l -11.375,-5.813 h 21.659 z" inkscape:connector-curvature="0" id="path121" style="fill:#7fa4cd;stroke:#000000"/><path d="m 180.833,221.979 h -28.409 c 0,0 1.207,1.346 1.207,2.846 0,1.5 -1.24,2.967 -1.24,2.967 h 20.942 l 7.5,-5.813 z" inkscape:connector-curvature="0" id="path123" style="fill:#fc6a40;stroke:#000000"/><path d="m 151.367,221.979 c 0,0 1.433,1.346 1.433,2.846 0,1.5 -1.558,2.967 -1.558,2.967 h -26.284 l -8.25,-5.813 h 34.659 z" inkscape:connector-curvature="0" id="path125" style="fill:#7fa4cd;stroke:#000000"/><polygon points="152.458,210.479 148.833,213.354 151.833,216.292 110.083,216.292 109.833,210.479 " id="polygon127" style="fill:#60b84f;stroke:#000000"/><polygon points="150.083,213.354 153.232,216.292 185.583,216.292 190.417,210.479 153.833,210.479 " id="polygon129" style="fill:#fffc60;stroke:#000000"/><g id="g131"><path d="M 114.458,43.917 C 101.867,32.074 114.08,21.384 114.08,21.384 c 0,0 -5.551,13.052 40.503,27.625 43.167,13.659 37.5,38.367 37.5,38.367 0,0 -3.963,-14.602 -41.168,-27.699 -18.439,-6.493 -30.789,-10.429 -36.457,-15.76 z" inkscape:connector-curvature="0" id="path133" style="fill:#a8a8a8;stroke:#000000"/><path d="m 115.351,111.809 c -7.83,-9.705 -6.767,-19.975 -6.767,-19.975 0,0 1.16,14.051 46,25.958 45.188,12 35.125,31.125 35.125,31.125 0,0 0.75,-10.063 -38.793,-20.457 -18.907,-4.97 -29.685,-9.362 -35.565,-16.651 z" inkscape:connector-curvature="0" id="path135" style="fill:#a8a8a8;stroke:#000000"/><path d="m 115,165.25 c -7.75,-9.084 -3.417,-20.75 -3.417,-20.75 0,0 2.325,10.546 43.75,25.833 43.583,16.083 35.834,38.083 35.834,38.083 0,0 -4.417,-15.167 -40.252,-26.883 C 132.112,175.386 120.342,171.511 115,165.25 z" inkscape:connector-curvature="0" id="path137" style="fill:#a8a8a8;stroke:#000000"/><path d="m 115.333,232.333 c -7.75,-9.084 -5.75,-20.667 -5.75,-20.667 0,0 3.874,14.626 45.75,28.5 15.422,5.109 24.677,9.24 30,13.917 13.604,11.952 1.583,22.166 1.583,22.166 0,0 3.333,-11.833 -35.583,-25.166 -18.714,-6.412 -30.658,-12.489 -36,-18.75 z" inkscape:connector-curvature="0" id="path139" style="fill:#a8a8a8;stroke:#000000"/></g></g><linearGradient x1="112.7749" y1="135.9697" x2="17.2749" y2="79.219704" id="SVGID_1_" gradientUnits="userSpaceOnUse"><stop id="stop142" style="stop-color:#c3a6d1;stop-opacity:1" offset="0"/><stop id="stop144" style="stop-color:#e5e4f1;stop-opacity:1" offset="1"/></linearGradient><path d="m 19.583,74.667 c 0,0 3.875,-0.25 7.125,1.75 3.25,2 4,5.875 8.25,8 4.25,2.125 8.75,1.875 11.875,4 3.125,2.125 5.75,6.75 9,8.75 3.25,2 8.625,1.25 11.625,3.625 3,2.375 5.375,6.375 10.125,8.75 4.75,2.375 10.375,2.125 12.25,3.5 1.875,1.375 2.75,2.5 2.75,2.5 l 2.375,-3.875 17.625,24.625 -29.5,-4.25 3.5,-6.5 c 0,0 -0.375,-1.375 -3.625,-2.875 -3.25,-1.5 -6.875,0 -11.25,-2.25 -4.375,-2.25 -7.25,-8.125 -11.25,-10.125 -4,-2 -6,-0.625 -9.625,-2 -3.625,-1.375 -6.875,-8.125 -11,-10 -4.125,-1.875 -7.25,-0.875 -10.75,-2.625 -3.5,-1.75 -6.25,-7.5 -9.25,-8.875 -3,-1.375 -6.375,-1.5 -6.375,-1.5 l 6.125,-10.625 z" inkscape:connector-curvature="0" id="path146" style="fill:url(#SVGID_1_)"/><text transform="translate(13.8335,31.6665)" id="text148" style="font-size:12px;font-family:MyriadPro-Bold">Before</text>
<text transform="translate(237.3335,31.6665)" id="text150" style="font-size:12px;font-family:MyriadPro-Bold">After</text>
<text transform="translate(32.3335,148.1665)" id="text152"><tspan x="0" y="0" id="tspan154" style="font-size:12px;font-family:MyriadPro-Regular">Incoming</tspan><tspan x="0" y="14.4" id="tspan156" style="font-size:12px;font-family:MyriadPro-Regular">UV Photon</tspan></text>
</svg>